<svg width="68" height="68" viewBox="0 0 68 68" fill="none" xmlns="http://www.w3.org/2000/svg">
<g clip-path="url(#clip0_5056_2360)">
<g filter="url(#filter0_f_5056_2360)">
<mask id="path-1-outside-1_5056_2360" maskUnits="userSpaceOnUse" x="3.17694" y="-1.2271" width="52.8731" height="69.1107" fill="black">
<rect fill="white" x="3.17694" y="-1.2271" width="52.8731" height="69.1107"/>
<path d="M33.7041 19.7944C32.9856 19.4452 32.2817 19.1049 31.5808 18.7595C31.4533 18.6966 31.3313 18.6191 31.2188 18.5333C31.1478 18.4793 31.0688 18.3916 31.1288 18.299C31.1671 18.2395 31.2614 18.1827 31.3313 18.1809C31.4808 18.1776 31.6367 18.192 31.7801 18.2331C32.2418 18.365 32.6981 18.5129 33.1573 18.6545V18.6545C33.2855 18.6942 33.4125 18.5642 33.3573 18.442C33.3523 18.431 33.3472 18.4201 33.3418 18.4093C33.2487 18.2233 33.1562 18.0351 33.0416 17.8618C32.4464 16.9598 32.0141 15.9777 31.5686 15.0016C31.451 14.7443 31.3473 14.475 31.1856 14.2454C30.8916 13.8288 30.6246 13.4002 30.3866 12.9506C30.3239 12.8318 30.1884 12.7501 30.0858 12.6526C29.7224 12.3092 29.3143 12.0529 28.8252 11.8926C28.1985 11.6872 27.564 11.5216 26.919 11.3847C26.4487 11.2853 25.983 11.1625 25.5171 11.0445C25.0265 10.92 24.5375 10.7893 24.0478 10.66C23.289 10.4596 22.5272 10.2703 21.7731 10.054C21.312 9.92132 20.8595 9.75619 20.4107 9.58599C20.2162 9.51191 20.0302 9.40466 19.9237 9.20703C19.8289 9.03122 19.8709 8.90728 20.0727 8.88427C20.2543 8.86385 20.4425 8.88527 20.6266 8.89966C21.4656 8.96714 22.2566 9.25418 23.0763 9.40908C24.8096 9.73704 26.5312 10.1301 28.2912 10.3187C28.9242 10.3867 29.5349 10.5538 30.1186 10.8071C30.6393 11.0332 31.0569 11.3607 31.384 11.8376C31.7303 12.3424 32.0063 12.8814 32.3059 13.4088C32.9884 14.6107 33.6245 15.8386 34.3436 17.0209C34.6182 17.4724 34.7713 17.9757 34.9693 18.46C35.0478 18.6522 35.1377 18.8406 35.2069 19.0364C35.2424 19.1362 35.2988 19.1882 35.3983 19.2085C35.7122 19.2734 36.0261 19.339 36.3395 19.4059C36.4875 19.4379 36.6367 19.469 36.7822 19.5106C37.1958 19.6282 37.6068 19.7534 38.021 19.8702C38.587 20.0294 38.943 20.3667 39.0146 20.9614C39.1164 21.8107 39.3342 22.6376 39.4988 23.4749C39.5739 23.8575 39.618 24.2464 39.6816 24.6314C39.7393 24.9826 39.812 25.3318 39.8609 25.6845C39.8893 25.8921 39.8487 26.0962 39.7314 26.2804C39.5631 26.5437 39.3597 26.7778 39.1133 26.9709C38.0402 27.8119 36.9623 28.6466 35.8899 29.4889C35.632 29.6911 35.3874 29.9096 35.1388 30.1237C35.088 30.1676 35.0455 30.2201 35.003 30.272C34.6452 30.7053 34.6346 30.8992 34.9407 31.3565C34.9918 31.4326 35.0448 31.5071 35.0973 31.5831C35.3207 31.9066 35.5442 31.9739 35.9261 31.8558C36.6517 31.6306 37.3807 31.4185 38.1055 31.192C38.6455 31.0233 39.1879 30.8584 39.7159 30.6571C40.3738 30.4059 40.9613 30.5091 41.5507 30.8596C42.1496 31.2159 42.7801 31.5207 43.3934 31.8548C43.5325 31.9307 43.67 32.0196 43.7819 32.1284C43.9619 32.3043 43.9858 32.4854 43.8109 32.6569C43.5518 32.9118 43.5258 33.25 43.4102 33.5547V33.5547C43.2795 33.9006 43.5236 34.277 43.8868 34.3465C43.9004 34.3491 43.9141 34.3516 43.9277 34.3542C44.2753 34.4193 44.6271 34.4854 44.9577 34.6033C45.2981 34.7243 45.6035 34.9249 45.8705 35.1715C46.0983 35.3806 46.337 35.5807 46.5446 35.8086C46.9781 36.2836 47.3926 36.7759 47.8184 37.2577C47.9838 37.4451 48.1663 37.6187 48.3291 37.8083C48.6663 38.2014 49.0131 38.5881 49.3226 39.0013C49.6392 39.4239 49.9937 39.8106 50.354 40.1947C50.6511 40.512 50.9638 40.8203 51.1678 41.207C51.4595 41.7607 51.628 42.3328 51.4859 42.9771C51.3184 43.7391 51.2042 44.513 51.0598 45.2802C50.7868 46.733 50.5181 48.1875 50.093 49.6081C50.0668 49.6955 50.0436 49.7846 50.0082 49.8688C49.8512 50.2456 49.6907 50.6207 49.5309 50.997C49.518 51.0279 49.5044 51.0582 49.4893 51.0879C49.4028 51.2565 49.3164 51.3246 49.2086 51.2889C49.0561 51.2378 49.0852 51.1016 49.0991 50.9931C49.1704 50.4504 49.2368 49.9062 49.3332 49.3673C49.4197 48.8846 49.4795 48.4017 49.5223 47.9136C49.564 47.4364 49.6813 46.9663 49.7646 46.4927C49.8036 46.2719 49.8461 46.0515 49.8748 45.8298C49.9174 45.5008 49.9426 45.1695 49.9887 44.8409C50.061 44.3231 50.1631 43.8092 50.2154 43.2899C50.2583 42.8619 50.1704 42.4454 49.902 42.0897C49.6258 41.7233 49.3487 41.3556 49.0539 41.0038C48.523 40.3694 47.9767 39.7466 47.4393 39.1168C47.0487 38.6587 46.6864 38.1743 46.2655 37.7453C45.8567 37.3287 45.3923 36.9631 44.9439 36.5852C44.8514 36.507 44.7252 36.4581 44.6062 36.4201C44.1089 36.2612 43.6121 36.0989 43.1075 35.9636C42.8124 35.8844 42.5128 35.819 42.2066 35.8001C41.9463 35.7839 41.7284 35.9662 41.7613 36.2249V36.2249C41.8265 36.7351 41.8726 37.2486 41.8969 37.7627C41.9365 38.6158 41.6295 39.3929 41.3019 40.1619C41.191 40.4224 41.0709 40.6798 40.9436 40.9337C40.7614 41.2974 40.4969 41.5979 40.1806 41.8575C39.7768 42.1887 39.367 42.507 38.8875 42.7347C38.0733 43.122 37.2583 43.1345 36.4335 42.794C36.0174 42.6221 35.6397 42.3893 35.3094 42.0839C35.125 41.9131 34.9213 41.763 34.7389 41.5907C34.1712 41.0549 33.7449 40.4302 33.4608 39.7018C33.2409 39.138 33.1273 38.5581 33.0475 37.965C33.0155 37.7266 32.9726 37.4886 32.8414 37.2772C32.673 37.0051 32.438 37.0056 32.2795 37.2854C32.1651 37.487 32.13 37.7121 32.1469 37.9363C32.1983 38.6157 32.245 39.2956 32.3264 39.9715C32.3793 40.4108 32.4061 40.8492 32.3696 41.2868C32.3165 41.914 32.2687 42.5461 32.1472 43.1623C32.0565 43.6225 32.0189 44.0709 32.0258 44.5388C32.0335 45.0525 32.0398 45.5656 32.0694 46.0785C32.0811 46.283 32.0264 46.4904 32.0176 46.6969C32.0071 46.9358 31.9919 47.1772 32.0176 47.4135C32.056 47.7645 32.0342 48.1103 31.9794 48.4552C31.8632 49.1855 31.7377 49.9125 31.4701 50.6111C31.3763 50.8559 31.3312 51.1284 31.3166 51.3907C31.2808 52.0554 31.1699 52.7103 31.0659 53.3659C30.9387 54.1693 30.7997 54.9718 30.6809 55.7764C30.6365 56.0792 30.6373 56.3879 30.6146 56.6941C30.5822 57.1252 30.5136 57.5503 30.4111 57.9725C30.1791 58.9267 30.0085 59.8892 29.949 60.8723C29.9212 61.3293 29.9439 61.7835 29.9323 62.2383C29.926 62.4782 29.9156 62.7179 29.8926 62.9566V62.9566C29.8761 63.1332 29.6456 63.2664 29.5928 63.0971C29.592 63.0946 29.5912 63.0921 29.5905 63.0895C29.5158 62.8356 29.4185 62.5832 29.3845 62.3235C29.2487 61.2724 29.2792 60.222 29.4473 59.1734C29.5326 58.6409 29.6017 58.1045 29.6537 57.5677C29.6872 57.2221 29.6688 56.8726 29.6863 56.5251C29.7051 56.1694 29.7238 55.8124 29.7703 55.4595C29.848 54.8751 29.9563 54.2946 30.0354 53.7101C30.0941 53.2745 30.1132 52.8345 30.1712 52.399C30.2563 51.7681 30.2599 51.134 30.1658 50.5125C30.0335 49.6378 30.2698 48.7965 30.3309 47.94C30.3714 47.3699 30.4569 46.8023 30.4967 46.2316C30.5177 45.9351 30.5036 45.6317 30.4669 45.3365C30.4042 44.83 30.4469 44.3258 30.455 43.8201C30.4676 43.0106 30.6778 42.2271 30.7689 41.4277C30.8018 41.1415 30.7893 40.8696 30.7266 40.5897C30.5916 39.9862 30.545 39.3731 30.6426 38.7585C30.6915 38.4532 30.6474 38.1668 30.5445 37.8826C30.4832 37.7131 30.3428 37.6521 30.1911 37.756C30.0684 37.8396 29.9512 37.9444 29.8655 38.0637C29.1854 39.0073 28.5198 39.9604 27.836 40.901C27.452 41.4292 27.0219 41.926 26.6496 42.4612C26.393 42.8298 26.1936 43.2375 25.9822 43.6349C25.8806 43.8258 25.8258 44.0406 25.7264 44.2326C25.4035 44.8548 25.2788 45.538 25.0797 46.1978C24.9283 46.6994 24.7755 47.2012 24.6219 47.7017C24.6051 47.7572 24.5792 47.8109 24.5546 47.8637C24.5186 47.9406 24.481 48.023 24.3746 48.0101C24.2606 47.9958 24.1885 47.9231 24.1756 47.8144C24.1582 47.6664 24.1476 47.5164 24.1515 47.3677C24.1813 46.208 24.5244 45.1134 24.8586 44.0128C25.0249 43.4639 25.2866 42.9661 25.5513 42.4639C25.6563 42.2646 25.7511 42.0602 25.8524 41.8585C25.8935 41.7765 25.9293 41.6902 25.9829 41.6164C26.4125 41.0192 26.8068 40.397 27.3449 39.8793C27.5686 39.6641 27.7026 39.3792 27.8442 39.1023C28.1245 38.5528 28.4124 38.0047 28.7368 37.48C28.9951 37.0621 29.3071 36.6755 29.6062 36.2827C29.7878 36.0445 29.8531 35.7741 29.8691 35.4908C29.8849 35.2129 29.9683 34.9738 30.1705 34.7721C30.2955 34.6471 30.4012 34.5071 30.44 34.3275C30.4659 34.2078 30.4507 34.1054 30.3337 34.0516C30.2066 33.9928 30.0725 33.9191 29.9378 33.9109C29.038 33.8552 28.3311 33.4315 27.734 32.8094C27.0844 32.1329 26.4042 31.4889 25.6877 30.8821C25.2316 30.4955 24.7015 30.2136 24.1729 29.9329C23.4584 29.5531 22.7208 29.2266 21.9593 28.9463C21.4932 28.775 21.058 28.5375 20.6693 28.2173C20.2918 27.9063 19.8704 27.6776 19.3721 27.5734C18.8774 27.4702 18.3995 27.2973 17.9109 27.1646C17.6916 27.1049 17.4662 27.0675 17.2429 27.0237C16.3903 26.8557 15.5367 26.6912 14.685 26.5191C14.5541 26.4923 14.4263 26.4416 14.3026 26.3898C14.1932 26.3442 14.0784 26.2848 14.0877 26.1424C14.0963 26.0081 14.2207 25.9856 14.3206 25.9452C14.688 25.7968 15.0693 25.8405 15.4482 25.8669C15.8099 25.8923 16.1706 25.9353 16.5333 25.9571C17.16 25.9947 17.7761 26.0878 18.3844 26.237C18.6383 26.2994 18.8921 26.3618 19.1495 26.4105C20.128 26.595 21.0402 26.965 21.951 27.3433C22.6931 27.6517 23.3773 28.0607 24.0796 28.4417C25.1127 29.0026 26.0493 29.6926 26.9901 30.3822C27.1775 30.5197 27.389 30.6279 27.5988 30.7329C27.6824 30.7749 27.8132 30.8213 27.874 30.7158C27.9172 30.6416 27.9156 30.5225 27.8923 30.435C27.6195 29.4325 27.2382 28.4666 26.835 27.5101C26.5158 26.752 26.141 26.0166 25.831 25.255C25.5212 24.4947 25.2106 23.7331 25.0063 22.9332C24.8769 22.4262 24.6463 21.9531 24.4289 21.4746C24.0893 20.7265 23.5559 20.1173 23.0333 19.4983C22.3152 18.6476 21.513 17.8756 20.6895 17.1251C20.0208 16.5158 19.3284 15.9323 18.6566 15.3266C18.4209 15.1142 18.2031 14.8798 17.9971 14.6396C17.2803 13.8036 16.4682 13.079 15.5485 12.4595C14.7834 11.9436 14.0603 11.369 13.3109 10.83C12.8003 10.4627 12.2876 10.0956 11.7565 9.75917C11.1525 9.37704 10.5698 8.96728 9.9919 8.549C9.58496 8.25419 9.14384 8.00507 8.7296 7.7204C8.19049 7.3497 7.66529 6.95881 7.12872 6.58585C6.92953 6.44749 6.70655 6.34102 6.50482 6.20492C6.23345 6.0221 5.96318 5.83648 5.71158 5.63023C5.58507 5.52683 5.47982 5.38638 5.40106 5.24277C5.30939 5.07139 5.43922 4.91762 5.63432 4.96132C5.78105 4.99472 5.92978 5.0421 6.06213 5.11259C6.62555 5.41291 7.17167 5.74857 7.74614 6.02764C9.18009 6.72349 10.5523 7.52222 11.8992 8.36647C12.6321 8.82548 13.3932 9.24139 14.1322 9.69174C14.8711 10.1414 15.6157 10.5858 16.3249 11.0781C16.7636 11.382 17.1459 11.7655 17.5456 12.1223C18.165 12.6742 18.7401 13.268 19.294 13.8834C19.5003 14.1128 19.7258 14.3262 19.9493 14.5405C20.3117 14.888 20.681 15.2281 21.0447 15.5742C21.6137 16.1167 22.2023 16.6418 22.7435 17.2099C23.7802 18.2997 24.8421 19.3716 25.7215 20.5934C25.9878 20.9635 26.2028 21.3727 26.4101 21.78C26.8263 22.5977 27.1068 23.4626 27.3526 24.3456C27.5923 25.2075 27.9051 26.0512 28.2169 26.8915C28.4939 27.6387 28.8141 28.3698 29.113 29.1089C29.2321 29.4044 29.4427 29.6058 29.7419 29.7192C29.9542 29.7997 30.0013 29.7812 30.1015 29.583C30.1768 29.4337 30.2391 29.2781 30.3239 29.1347C30.507 28.8242 30.7884 28.6818 31.1511 28.7179C31.3356 28.7363 31.519 28.7723 31.7006 28.8112C31.8807 28.8496 32.0213 28.8026 32.1109 28.6446C32.1839 28.515 32.2587 28.3819 32.3039 28.2415C32.4891 27.6605 32.5594 27.0566 32.6683 26.4606C32.8267 25.5942 33.011 24.7322 33.1798 23.8676C33.3107 23.1987 33.4605 22.5327 33.5552 21.8591C33.6417 21.2436 33.6656 20.6205 33.7138 20.0004C33.7192 19.9281 33.7092 19.8553 33.7064 19.798C33.7063 19.7964 33.7054 19.7951 33.7041 19.7944V19.7944ZM35.5105 20.3373C35.5093 20.337 35.5082 20.3378 35.5079 20.3389C35.4912 20.4208 35.478 20.4682 35.4724 20.5168C35.383 21.2991 35.2663 22.0752 35.0642 22.8412C34.8949 23.4827 34.7806 24.1379 34.6424 24.7873C34.6305 24.8443 34.6285 24.9032 34.616 24.9597C34.544 25.2833 34.5011 25.6169 34.3922 25.9278C34.0954 26.7762 34.0086 27.6587 33.8961 28.5382C33.8548 28.8589 34.0624 29.0208 34.3766 28.9212C34.5528 28.8655 34.7362 28.8072 34.8892 28.7092C35.2988 28.4476 35.7296 28.2069 36.0084 27.7877C36.0631 27.705 36.1397 27.6358 36.2122 27.5663C36.8022 26.9938 37.4058 26.4349 38.0502 25.922C38.4203 25.6277 38.5672 25.2599 38.5243 24.8035C38.4723 24.2502 38.4212 23.6982 38.3039 23.1523C38.1761 22.5596 38.011 21.9792 37.7857 21.4166C37.6718 21.1333 37.4698 20.9211 37.1738 20.8275C36.6293 20.6555 36.0778 20.5037 35.5105 20.3373V20.3373ZM42.089 33.956C42.3455 34.0152 42.5878 33.8157 42.5945 33.5525V33.5525C42.6004 33.3382 42.5897 33.1215 42.6214 32.9102C42.642 32.7714 42.6067 32.6736 42.4993 32.6129C42.3325 32.5187 42.1601 32.4243 41.9776 32.3687C41.6352 32.264 41.3167 32.1206 41.0213 31.9232C40.8615 31.8162 40.6848 31.7789 40.4922 31.8415C40.1935 31.939 39.8821 31.9662 39.5724 32.0115C39.3087 32.0497 39.0524 32.1439 38.7969 32.2259V32.2259C38.6502 32.2732 38.5609 32.488 38.6922 32.5689C38.7252 32.5893 38.7646 32.6036 38.8082 32.6165C39.2666 32.7501 39.6957 32.9369 40.0168 33.3045C40.0653 33.3606 40.1288 33.4073 40.1923 33.4471C40.2543 33.4858 40.3222 33.5212 40.3926 33.5389C40.9401 33.6769 41.4886 33.8114 42.0376 33.9439C42.0547 33.948 42.0718 33.9521 42.089 33.956Z"/>
</mask>
<path d="M33.7041 19.7944C32.9856 19.4452 32.2817 19.1049 31.5808 18.7595C31.4533 18.6966 31.3313 18.6191 31.2188 18.5333C31.1478 18.4793 31.0688 18.3916 31.1288 18.299C31.1671 18.2395 31.2614 18.1827 31.3313 18.1809C31.4808 18.1776 31.6367 18.192 31.7801 18.2331C32.2418 18.365 32.6981 18.5129 33.1573 18.6545V18.6545C33.2855 18.6942 33.4125 18.5642 33.3573 18.442C33.3523 18.431 33.3472 18.4201 33.3418 18.4093C33.2487 18.2233 33.1562 18.0351 33.0416 17.8618C32.4464 16.9598 32.0141 15.9777 31.5686 15.0016C31.451 14.7443 31.3473 14.475 31.1856 14.2454C30.8916 13.8288 30.6246 13.4002 30.3866 12.9506C30.3239 12.8318 30.1884 12.7501 30.0858 12.6526C29.7224 12.3092 29.3143 12.0529 28.8252 11.8926C28.1985 11.6872 27.564 11.5216 26.919 11.3847C26.4487 11.2853 25.983 11.1625 25.5171 11.0445C25.0265 10.92 24.5375 10.7893 24.0478 10.66C23.289 10.4596 22.5272 10.2703 21.7731 10.054C21.312 9.92132 20.8595 9.75619 20.4107 9.58599C20.2162 9.51191 20.0302 9.40466 19.9237 9.20703C19.8289 9.03122 19.8709 8.90728 20.0727 8.88427C20.2543 8.86385 20.4425 8.88527 20.6266 8.89966C21.4656 8.96714 22.2566 9.25418 23.0763 9.40908C24.8096 9.73704 26.5312 10.1301 28.2912 10.3187C28.9242 10.3867 29.5349 10.5538 30.1186 10.8071C30.6393 11.0332 31.0569 11.3607 31.384 11.8376C31.7303 12.3424 32.0063 12.8814 32.3059 13.4088C32.9884 14.6107 33.6245 15.8386 34.3436 17.0209C34.6182 17.4724 34.7713 17.9757 34.9693 18.46C35.0478 18.6522 35.1377 18.8406 35.2069 19.0364C35.2424 19.1362 35.2988 19.1882 35.3983 19.2085C35.7122 19.2734 36.0261 19.339 36.3395 19.4059C36.4875 19.4379 36.6367 19.469 36.7822 19.5106C37.1958 19.6282 37.6068 19.7534 38.021 19.8702C38.587 20.0294 38.943 20.3667 39.0146 20.9614C39.1164 21.8107 39.3342 22.6376 39.4988 23.4749C39.5739 23.8575 39.618 24.2464 39.6816 24.6314C39.7393 24.9826 39.812 25.3318 39.8609 25.6845C39.8893 25.8921 39.8487 26.0962 39.7314 26.2804C39.5631 26.5437 39.3597 26.7778 39.1133 26.9709C38.0402 27.8119 36.9623 28.6466 35.8899 29.4889C35.632 29.6911 35.3874 29.9096 35.1388 30.1237C35.088 30.1676 35.0455 30.2201 35.003 30.272C34.6452 30.7053 34.6346 30.8992 34.9407 31.3565C34.9918 31.4326 35.0448 31.5071 35.0973 31.5831C35.3207 31.9066 35.5442 31.9739 35.9261 31.8558C36.6517 31.6306 37.3807 31.4185 38.1055 31.192C38.6455 31.0233 39.1879 30.8584 39.7159 30.6571C40.3738 30.4059 40.9613 30.5091 41.5507 30.8596C42.1496 31.2159 42.7801 31.5207 43.3934 31.8548C43.5325 31.9307 43.67 32.0196 43.7819 32.1284C43.9619 32.3043 43.9858 32.4854 43.8109 32.6569C43.5518 32.9118 43.5258 33.25 43.4102 33.5547V33.5547C43.2795 33.9006 43.5236 34.277 43.8868 34.3465C43.9004 34.3491 43.9141 34.3516 43.9277 34.3542C44.2753 34.4193 44.6271 34.4854 44.9577 34.6033C45.2981 34.7243 45.6035 34.9249 45.8705 35.1715C46.0983 35.3806 46.337 35.5807 46.5446 35.8086C46.9781 36.2836 47.3926 36.7759 47.8184 37.2577C47.9838 37.4451 48.1663 37.6187 48.3291 37.8083C48.6663 38.2014 49.0131 38.5881 49.3226 39.0013C49.6392 39.4239 49.9937 39.8106 50.354 40.1947C50.6511 40.512 50.9638 40.8203 51.1678 41.207C51.4595 41.7607 51.628 42.3328 51.4859 42.9771C51.3184 43.7391 51.2042 44.513 51.0598 45.2802C50.7868 46.733 50.5181 48.1875 50.093 49.6081C50.0668 49.6955 50.0436 49.7846 50.0082 49.8688C49.8512 50.2456 49.6907 50.6207 49.5309 50.997C49.518 51.0279 49.5044 51.0582 49.4893 51.0879C49.4028 51.2565 49.3164 51.3246 49.2086 51.2889C49.0561 51.2378 49.0852 51.1016 49.0991 50.9931C49.1704 50.4504 49.2368 49.9062 49.3332 49.3673C49.4197 48.8846 49.4795 48.4017 49.5223 47.9136C49.564 47.4364 49.6813 46.9663 49.7646 46.4927C49.8036 46.2719 49.8461 46.0515 49.8748 45.8298C49.9174 45.5008 49.9426 45.1695 49.9887 44.8409C50.061 44.3231 50.1631 43.8092 50.2154 43.2899C50.2583 42.8619 50.1704 42.4454 49.902 42.0897C49.6258 41.7233 49.3487 41.3556 49.0539 41.0038C48.523 40.3694 47.9767 39.7466 47.4393 39.1168C47.0487 38.6587 46.6864 38.1743 46.2655 37.7453C45.8567 37.3287 45.3923 36.9631 44.9439 36.5852C44.8514 36.507 44.7252 36.4581 44.6062 36.4201C44.1089 36.2612 43.6121 36.0989 43.1075 35.9636C42.8124 35.8844 42.5128 35.819 42.2066 35.8001C41.9463 35.7839 41.7284 35.9662 41.7613 36.2249V36.2249C41.8265 36.7351 41.8726 37.2486 41.8969 37.7627C41.9365 38.6158 41.6295 39.3929 41.3019 40.1619C41.191 40.4224 41.0709 40.6798 40.9436 40.9337C40.7614 41.2974 40.4969 41.5979 40.1806 41.8575C39.7768 42.1887 39.367 42.507 38.8875 42.7347C38.0733 43.122 37.2583 43.1345 36.4335 42.794C36.0174 42.6221 35.6397 42.3893 35.3094 42.0839C35.125 41.9131 34.9213 41.763 34.7389 41.5907C34.1712 41.0549 33.7449 40.4302 33.4608 39.7018C33.2409 39.138 33.1273 38.5581 33.0475 37.965C33.0155 37.7266 32.9726 37.4886 32.8414 37.2772C32.673 37.0051 32.438 37.0056 32.2795 37.2854C32.1651 37.487 32.13 37.7121 32.1469 37.9363C32.1983 38.6157 32.245 39.2956 32.3264 39.9715C32.3793 40.4108 32.4061 40.8492 32.3696 41.2868C32.3165 41.914 32.2687 42.5461 32.1472 43.1623C32.0565 43.6225 32.0189 44.0709 32.0258 44.5388C32.0335 45.0525 32.0398 45.5656 32.0694 46.0785C32.0811 46.283 32.0264 46.4904 32.0176 46.6969C32.0071 46.9358 31.9919 47.1772 32.0176 47.4135C32.056 47.7645 32.0342 48.1103 31.9794 48.4552C31.8632 49.1855 31.7377 49.9125 31.4701 50.6111C31.3763 50.8559 31.3312 51.1284 31.3166 51.3907C31.2808 52.0554 31.1699 52.7103 31.0659 53.3659C30.9387 54.1693 30.7997 54.9718 30.6809 55.7764C30.6365 56.0792 30.6373 56.3879 30.6146 56.6941C30.5822 57.1252 30.5136 57.5503 30.4111 57.9725C30.1791 58.9267 30.0085 59.8892 29.949 60.8723C29.9212 61.3293 29.9439 61.7835 29.9323 62.2383C29.926 62.4782 29.9156 62.7179 29.8926 62.9566V62.9566C29.8761 63.1332 29.6456 63.2664 29.5928 63.0971C29.592 63.0946 29.5912 63.0921 29.5905 63.0895C29.5158 62.8356 29.4185 62.5832 29.3845 62.3235C29.2487 61.2724 29.2792 60.222 29.4473 59.1734C29.5326 58.6409 29.6017 58.1045 29.6537 57.5677C29.6872 57.2221 29.6688 56.8726 29.6863 56.5251C29.7051 56.1694 29.7238 55.8124 29.7703 55.4595C29.848 54.8751 29.9563 54.2946 30.0354 53.7101C30.0941 53.2745 30.1132 52.8345 30.1712 52.399C30.2563 51.7681 30.2599 51.134 30.1658 50.5125C30.0335 49.6378 30.2698 48.7965 30.3309 47.94C30.3714 47.3699 30.4569 46.8023 30.4967 46.2316C30.5177 45.9351 30.5036 45.6317 30.4669 45.3365C30.4042 44.83 30.4469 44.3258 30.455 43.8201C30.4676 43.0106 30.6778 42.2271 30.7689 41.4277C30.8018 41.1415 30.7893 40.8696 30.7266 40.5897C30.5916 39.9862 30.545 39.3731 30.6426 38.7585C30.6915 38.4532 30.6474 38.1668 30.5445 37.8826C30.4832 37.7131 30.3428 37.6521 30.1911 37.756C30.0684 37.8396 29.9512 37.9444 29.8655 38.0637C29.1854 39.0073 28.5198 39.9604 27.836 40.901C27.452 41.4292 27.0219 41.926 26.6496 42.4612C26.393 42.8298 26.1936 43.2375 25.9822 43.6349C25.8806 43.8258 25.8258 44.0406 25.7264 44.2326C25.4035 44.8548 25.2788 45.538 25.0797 46.1978C24.9283 46.6994 24.7755 47.2012 24.6219 47.7017C24.6051 47.7572 24.5792 47.8109 24.5546 47.8637C24.5186 47.9406 24.481 48.023 24.3746 48.0101C24.2606 47.9958 24.1885 47.9231 24.1756 47.8144C24.1582 47.6664 24.1476 47.5164 24.1515 47.3677C24.1813 46.208 24.5244 45.1134 24.8586 44.0128C25.0249 43.4639 25.2866 42.9661 25.5513 42.4639C25.6563 42.2646 25.7511 42.0602 25.8524 41.8585C25.8935 41.7765 25.9293 41.6902 25.9829 41.6164C26.4125 41.0192 26.8068 40.397 27.3449 39.8793C27.5686 39.6641 27.7026 39.3792 27.8442 39.1023C28.1245 38.5528 28.4124 38.0047 28.7368 37.48C28.9951 37.0621 29.3071 36.6755 29.6062 36.2827C29.7878 36.0445 29.8531 35.7741 29.8691 35.4908C29.8849 35.2129 29.9683 34.9738 30.1705 34.7721C30.2955 34.6471 30.4012 34.5071 30.44 34.3275C30.4659 34.2078 30.4507 34.1054 30.3337 34.0516C30.2066 33.9928 30.0725 33.9191 29.9378 33.9109C29.038 33.8552 28.3311 33.4315 27.734 32.8094C27.0844 32.1329 26.4042 31.4889 25.6877 30.8821C25.2316 30.4955 24.7015 30.2136 24.1729 29.9329C23.4584 29.5531 22.7208 29.2266 21.9593 28.9463C21.4932 28.775 21.058 28.5375 20.6693 28.2173C20.2918 27.9063 19.8704 27.6776 19.3721 27.5734C18.8774 27.4702 18.3995 27.2973 17.9109 27.1646C17.6916 27.1049 17.4662 27.0675 17.2429 27.0237C16.3903 26.8557 15.5367 26.6912 14.685 26.5191C14.5541 26.4923 14.4263 26.4416 14.3026 26.3898C14.1932 26.3442 14.0784 26.2848 14.0877 26.1424C14.0963 26.0081 14.2207 25.9856 14.3206 25.9452C14.688 25.7968 15.0693 25.8405 15.4482 25.8669C15.8099 25.8923 16.1706 25.9353 16.5333 25.9571C17.16 25.9947 17.7761 26.0878 18.3844 26.237C18.6383 26.2994 18.8921 26.3618 19.1495 26.4105C20.128 26.595 21.0402 26.965 21.951 27.3433C22.6931 27.6517 23.3773 28.0607 24.0796 28.4417C25.1127 29.0026 26.0493 29.6926 26.9901 30.3822C27.1775 30.5197 27.389 30.6279 27.5988 30.7329C27.6824 30.7749 27.8132 30.8213 27.874 30.7158C27.9172 30.6416 27.9156 30.5225 27.8923 30.435C27.6195 29.4325 27.2382 28.4666 26.835 27.5101C26.5158 26.752 26.141 26.0166 25.831 25.255C25.5212 24.4947 25.2106 23.7331 25.0063 22.9332C24.8769 22.4262 24.6463 21.9531 24.4289 21.4746C24.0893 20.7265 23.5559 20.1173 23.0333 19.4983C22.3152 18.6476 21.513 17.8756 20.6895 17.1251C20.0208 16.5158 19.3284 15.9323 18.6566 15.3266C18.4209 15.1142 18.2031 14.8798 17.9971 14.6396C17.2803 13.8036 16.4682 13.079 15.5485 12.4595C14.7834 11.9436 14.0603 11.369 13.3109 10.83C12.8003 10.4627 12.2876 10.0956 11.7565 9.75917C11.1525 9.37704 10.5698 8.96728 9.9919 8.549C9.58496 8.25419 9.14384 8.00507 8.7296 7.7204C8.19049 7.3497 7.66529 6.95881 7.12872 6.58585C6.92953 6.44749 6.70655 6.34102 6.50482 6.20492C6.23345 6.0221 5.96318 5.83648 5.71158 5.63023C5.58507 5.52683 5.47982 5.38638 5.40106 5.24277C5.30939 5.07139 5.43922 4.91762 5.63432 4.96132C5.78105 4.99472 5.92978 5.0421 6.06213 5.11259C6.62555 5.41291 7.17167 5.74857 7.74614 6.02764C9.18009 6.72349 10.5523 7.52222 11.8992 8.36647C12.6321 8.82548 13.3932 9.24139 14.1322 9.69174C14.8711 10.1414 15.6157 10.5858 16.3249 11.0781C16.7636 11.382 17.1459 11.7655 17.5456 12.1223C18.165 12.6742 18.7401 13.268 19.294 13.8834C19.5003 14.1128 19.7258 14.3262 19.9493 14.5405C20.3117 14.888 20.681 15.2281 21.0447 15.5742C21.6137 16.1167 22.2023 16.6418 22.7435 17.2099C23.7802 18.2997 24.8421 19.3716 25.7215 20.5934C25.9878 20.9635 26.2028 21.3727 26.4101 21.78C26.8263 22.5977 27.1068 23.4626 27.3526 24.3456C27.5923 25.2075 27.9051 26.0512 28.2169 26.8915C28.4939 27.6387 28.8141 28.3698 29.113 29.1089C29.2321 29.4044 29.4427 29.6058 29.7419 29.7192C29.9542 29.7997 30.0013 29.7812 30.1015 29.583C30.1768 29.4337 30.2391 29.2781 30.3239 29.1347C30.507 28.8242 30.7884 28.6818 31.1511 28.7179C31.3356 28.7363 31.519 28.7723 31.7006 28.8112C31.8807 28.8496 32.0213 28.8026 32.1109 28.6446C32.1839 28.515 32.2587 28.3819 32.3039 28.2415C32.4891 27.6605 32.5594 27.0566 32.6683 26.4606C32.8267 25.5942 33.011 24.7322 33.1798 23.8676C33.3107 23.1987 33.4605 22.5327 33.5552 21.8591C33.6417 21.2436 33.6656 20.6205 33.7138 20.0004C33.7192 19.9281 33.7092 19.8553 33.7064 19.798C33.7063 19.7964 33.7054 19.7951 33.7041 19.7944V19.7944ZM35.5105 20.3373C35.5093 20.337 35.5082 20.3378 35.5079 20.3389C35.4912 20.4208 35.478 20.4682 35.4724 20.5168C35.383 21.2991 35.2663 22.0752 35.0642 22.8412C34.8949 23.4827 34.7806 24.1379 34.6424 24.7873C34.6305 24.8443 34.6285 24.9032 34.616 24.9597C34.544 25.2833 34.5011 25.6169 34.3922 25.9278C34.0954 26.7762 34.0086 27.6587 33.8961 28.5382C33.8548 28.8589 34.0624 29.0208 34.3766 28.9212C34.5528 28.8655 34.7362 28.8072 34.8892 28.7092C35.2988 28.4476 35.7296 28.2069 36.0084 27.7877C36.0631 27.705 36.1397 27.6358 36.2122 27.5663C36.8022 26.9938 37.4058 26.4349 38.0502 25.922C38.4203 25.6277 38.5672 25.2599 38.5243 24.8035C38.4723 24.2502 38.4212 23.6982 38.3039 23.1523C38.1761 22.5596 38.011 21.9792 37.7857 21.4166C37.6718 21.1333 37.4698 20.9211 37.1738 20.8275C36.6293 20.6555 36.0778 20.5037 35.5105 20.3373V20.3373ZM42.089 33.956C42.3455 34.0152 42.5878 33.8157 42.5945 33.5525V33.5525C42.6004 33.3382 42.5897 33.1215 42.6214 32.9102C42.642 32.7714 42.6067 32.6736 42.4993 32.6129C42.3325 32.5187 42.1601 32.4243 41.9776 32.3687C41.6352 32.264 41.3167 32.1206 41.0213 31.9232C40.8615 31.8162 40.6848 31.7789 40.4922 31.8415C40.1935 31.939 39.8821 31.9662 39.5724 32.0115C39.3087 32.0497 39.0524 32.1439 38.7969 32.2259V32.2259C38.6502 32.2732 38.5609 32.488 38.6922 32.5689C38.7252 32.5893 38.7646 32.6036 38.8082 32.6165C39.2666 32.7501 39.6957 32.9369 40.0168 33.3045C40.0653 33.3606 40.1288 33.4073 40.1923 33.4471C40.2543 33.4858 40.3222 33.5212 40.3926 33.5389C40.9401 33.6769 41.4886 33.8114 42.0376 33.9439C42.0547 33.948 42.0718 33.9521 42.089 33.956Z" fill="black"/>
<path d="M33.7041 19.7944C32.9856 19.4452 32.2817 19.1049 31.5808 18.7595C31.4533 18.6966 31.3313 18.6191 31.2188 18.5333C31.1478 18.4793 31.0688 18.3916 31.1288 18.299C31.1671 18.2395 31.2614 18.1827 31.3313 18.1809C31.4808 18.1776 31.6367 18.192 31.7801 18.2331C32.2418 18.365 32.6981 18.5129 33.1573 18.6545V18.6545C33.2855 18.6942 33.4125 18.5642 33.3573 18.442C33.3523 18.431 33.3472 18.4201 33.3418 18.4093C33.2487 18.2233 33.1562 18.0351 33.0416 17.8618C32.4464 16.9598 32.0141 15.9777 31.5686 15.0016C31.451 14.7443 31.3473 14.475 31.1856 14.2454C30.8916 13.8288 30.6246 13.4002 30.3866 12.9506C30.3239 12.8318 30.1884 12.7501 30.0858 12.6526C29.7224 12.3092 29.3143 12.0529 28.8252 11.8926C28.1985 11.6872 27.564 11.5216 26.919 11.3847C26.4487 11.2853 25.983 11.1625 25.5171 11.0445C25.0265 10.92 24.5375 10.7893 24.0478 10.66C23.289 10.4596 22.5272 10.2703 21.7731 10.054C21.312 9.92132 20.8595 9.75619 20.4107 9.58599C20.2162 9.51191 20.0302 9.40466 19.9237 9.20703C19.8289 9.03122 19.8709 8.90728 20.0727 8.88427C20.2543 8.86385 20.4425 8.88527 20.6266 8.89966C21.4656 8.96714 22.2566 9.25418 23.0763 9.40908C24.8096 9.73704 26.5312 10.1301 28.2912 10.3187C28.9242 10.3867 29.5349 10.5538 30.1186 10.8071C30.6393 11.0332 31.0569 11.3607 31.384 11.8376C31.7303 12.3424 32.0063 12.8814 32.3059 13.4088C32.9884 14.6107 33.6245 15.8386 34.3436 17.0209C34.6182 17.4724 34.7713 17.9757 34.9693 18.46C35.0478 18.6522 35.1377 18.8406 35.2069 19.0364C35.2424 19.1362 35.2988 19.1882 35.3983 19.2085C35.7122 19.2734 36.0261 19.339 36.3395 19.4059C36.4875 19.4379 36.6367 19.469 36.7822 19.5106C37.1958 19.6282 37.6068 19.7534 38.021 19.8702C38.587 20.0294 38.943 20.3667 39.0146 20.9614C39.1164 21.8107 39.3342 22.6376 39.4988 23.4749C39.5739 23.8575 39.618 24.2464 39.6816 24.6314C39.7393 24.9826 39.812 25.3318 39.8609 25.6845C39.8893 25.8921 39.8487 26.0962 39.7314 26.2804C39.5631 26.5437 39.3597 26.7778 39.1133 26.9709C38.0402 27.8119 36.9623 28.6466 35.8899 29.4889C35.632 29.6911 35.3874 29.9096 35.1388 30.1237C35.088 30.1676 35.0455 30.2201 35.003 30.272C34.6452 30.7053 34.6346 30.8992 34.9407 31.3565C34.9918 31.4326 35.0448 31.5071 35.0973 31.5831C35.3207 31.9066 35.5442 31.9739 35.9261 31.8558C36.6517 31.6306 37.3807 31.4185 38.1055 31.192C38.6455 31.0233 39.1879 30.8584 39.7159 30.6571C40.3738 30.4059 40.9613 30.5091 41.5507 30.8596C42.1496 31.2159 42.7801 31.5207 43.3934 31.8548C43.5325 31.9307 43.67 32.0196 43.7819 32.1284C43.9619 32.3043 43.9858 32.4854 43.8109 32.6569C43.5518 32.9118 43.5258 33.25 43.4102 33.5547V33.5547C43.2795 33.9006 43.5236 34.277 43.8868 34.3465C43.9004 34.3491 43.9141 34.3516 43.9277 34.3542C44.2753 34.4193 44.6271 34.4854 44.9577 34.6033C45.2981 34.7243 45.6035 34.9249 45.8705 35.1715C46.0983 35.3806 46.337 35.5807 46.5446 35.8086C46.9781 36.2836 47.3926 36.7759 47.8184 37.2577C47.9838 37.4451 48.1663 37.6187 48.3291 37.8083C48.6663 38.2014 49.0131 38.5881 49.3226 39.0013C49.6392 39.4239 49.9937 39.8106 50.354 40.1947C50.6511 40.512 50.9638 40.8203 51.1678 41.207C51.4595 41.7607 51.628 42.3328 51.4859 42.9771C51.3184 43.7391 51.2042 44.513 51.0598 45.2802C50.7868 46.733 50.5181 48.1875 50.093 49.6081C50.0668 49.6955 50.0436 49.7846 50.0082 49.8688C49.8512 50.2456 49.6907 50.6207 49.5309 50.997C49.518 51.0279 49.5044 51.0582 49.4893 51.0879C49.4028 51.2565 49.3164 51.3246 49.2086 51.2889C49.0561 51.2378 49.0852 51.1016 49.0991 50.9931C49.1704 50.4504 49.2368 49.9062 49.3332 49.3673C49.4197 48.8846 49.4795 48.4017 49.5223 47.9136C49.564 47.4364 49.6813 46.9663 49.7646 46.4927C49.8036 46.2719 49.8461 46.0515 49.8748 45.8298C49.9174 45.5008 49.9426 45.1695 49.9887 44.8409C50.061 44.3231 50.1631 43.8092 50.2154 43.2899C50.2583 42.8619 50.1704 42.4454 49.902 42.0897C49.6258 41.7233 49.3487 41.3556 49.0539 41.0038C48.523 40.3694 47.9767 39.7466 47.4393 39.1168C47.0487 38.6587 46.6864 38.1743 46.2655 37.7453C45.8567 37.3287 45.3923 36.9631 44.9439 36.5852C44.8514 36.507 44.7252 36.4581 44.6062 36.4201C44.1089 36.2612 43.6121 36.0989 43.1075 35.9636C42.8124 35.8844 42.5128 35.819 42.2066 35.8001C41.9463 35.7839 41.7284 35.9662 41.7613 36.2249V36.2249C41.8265 36.7351 41.8726 37.2486 41.8969 37.7627C41.9365 38.6158 41.6295 39.3929 41.3019 40.1619C41.191 40.4224 41.0709 40.6798 40.9436 40.9337C40.7614 41.2974 40.4969 41.5979 40.1806 41.8575C39.7768 42.1887 39.367 42.507 38.8875 42.7347C38.0733 43.122 37.2583 43.1345 36.4335 42.794C36.0174 42.6221 35.6397 42.3893 35.3094 42.0839C35.125 41.9131 34.9213 41.763 34.7389 41.5907C34.1712 41.0549 33.7449 40.4302 33.4608 39.7018C33.2409 39.138 33.1273 38.5581 33.0475 37.965C33.0155 37.7266 32.9726 37.4886 32.8414 37.2772C32.673 37.0051 32.438 37.0056 32.2795 37.2854C32.1651 37.487 32.13 37.7121 32.1469 37.9363C32.1983 38.6157 32.245 39.2956 32.3264 39.9715C32.3793 40.4108 32.4061 40.8492 32.3696 41.2868C32.3165 41.914 32.2687 42.5461 32.1472 43.1623C32.0565 43.6225 32.0189 44.0709 32.0258 44.5388C32.0335 45.0525 32.0398 45.5656 32.0694 46.0785C32.0811 46.283 32.0264 46.4904 32.0176 46.6969C32.0071 46.9358 31.9919 47.1772 32.0176 47.4135C32.056 47.7645 32.0342 48.1103 31.9794 48.4552C31.8632 49.1855 31.7377 49.9125 31.4701 50.6111C31.3763 50.8559 31.3312 51.1284 31.3166 51.3907C31.2808 52.0554 31.1699 52.7103 31.0659 53.3659C30.9387 54.1693 30.7997 54.9718 30.6809 55.7764C30.6365 56.0792 30.6373 56.3879 30.6146 56.6941C30.5822 57.1252 30.5136 57.5503 30.4111 57.9725C30.1791 58.9267 30.0085 59.8892 29.949 60.8723C29.9212 61.3293 29.9439 61.7835 29.9323 62.2383C29.926 62.4782 29.9156 62.7179 29.8926 62.9566V62.9566C29.8761 63.1332 29.6456 63.2664 29.5928 63.0971C29.592 63.0946 29.5912 63.0921 29.5905 63.0895C29.5158 62.8356 29.4185 62.5832 29.3845 62.3235C29.2487 61.2724 29.2792 60.222 29.4473 59.1734C29.5326 58.6409 29.6017 58.1045 29.6537 57.5677C29.6872 57.2221 29.6688 56.8726 29.6863 56.5251C29.7051 56.1694 29.7238 55.8124 29.7703 55.4595C29.848 54.8751 29.9563 54.2946 30.0354 53.7101C30.0941 53.2745 30.1132 52.8345 30.1712 52.399C30.2563 51.7681 30.2599 51.134 30.1658 50.5125C30.0335 49.6378 30.2698 48.7965 30.3309 47.94C30.3714 47.3699 30.4569 46.8023 30.4967 46.2316C30.5177 45.9351 30.5036 45.6317 30.4669 45.3365C30.4042 44.83 30.4469 44.3258 30.455 43.8201C30.4676 43.0106 30.6778 42.2271 30.7689 41.4277C30.8018 41.1415 30.7893 40.8696 30.7266 40.5897C30.5916 39.9862 30.545 39.3731 30.6426 38.7585C30.6915 38.4532 30.6474 38.1668 30.5445 37.8826C30.4832 37.7131 30.3428 37.6521 30.1911 37.756C30.0684 37.8396 29.9512 37.9444 29.8655 38.0637C29.1854 39.0073 28.5198 39.9604 27.836 40.901C27.452 41.4292 27.0219 41.926 26.6496 42.4612C26.393 42.8298 26.1936 43.2375 25.9822 43.6349C25.8806 43.8258 25.8258 44.0406 25.7264 44.2326C25.4035 44.8548 25.2788 45.538 25.0797 46.1978C24.9283 46.6994 24.7755 47.2012 24.6219 47.7017C24.6051 47.7572 24.5792 47.8109 24.5546 47.8637C24.5186 47.9406 24.481 48.023 24.3746 48.0101C24.2606 47.9958 24.1885 47.9231 24.1756 47.8144C24.1582 47.6664 24.1476 47.5164 24.1515 47.3677C24.1813 46.208 24.5244 45.1134 24.8586 44.0128C25.0249 43.4639 25.2866 42.9661 25.5513 42.4639C25.6563 42.2646 25.7511 42.0602 25.8524 41.8585C25.8935 41.7765 25.9293 41.6902 25.9829 41.6164C26.4125 41.0192 26.8068 40.397 27.3449 39.8793C27.5686 39.6641 27.7026 39.3792 27.8442 39.1023C28.1245 38.5528 28.4124 38.0047 28.7368 37.48C28.9951 37.0621 29.3071 36.6755 29.6062 36.2827C29.7878 36.0445 29.8531 35.7741 29.8691 35.4908C29.8849 35.2129 29.9683 34.9738 30.1705 34.7721C30.2955 34.6471 30.4012 34.5071 30.44 34.3275C30.4659 34.2078 30.4507 34.1054 30.3337 34.0516C30.2066 33.9928 30.0725 33.9191 29.9378 33.9109C29.038 33.8552 28.3311 33.4315 27.734 32.8094C27.0844 32.1329 26.4042 31.4889 25.6877 30.8821C25.2316 30.4955 24.7015 30.2136 24.1729 29.9329C23.4584 29.5531 22.7208 29.2266 21.9593 28.9463C21.4932 28.775 21.058 28.5375 20.6693 28.2173C20.2918 27.9063 19.8704 27.6776 19.3721 27.5734C18.8774 27.4702 18.3995 27.2973 17.9109 27.1646C17.6916 27.1049 17.4662 27.0675 17.2429 27.0237C16.3903 26.8557 15.5367 26.6912 14.685 26.5191C14.5541 26.4923 14.4263 26.4416 14.3026 26.3898C14.1932 26.3442 14.0784 26.2848 14.0877 26.1424C14.0963 26.0081 14.2207 25.9856 14.3206 25.9452C14.688 25.7968 15.0693 25.8405 15.4482 25.8669C15.8099 25.8923 16.1706 25.9353 16.5333 25.9571C17.16 25.9947 17.7761 26.0878 18.3844 26.237C18.6383 26.2994 18.8921 26.3618 19.1495 26.4105C20.128 26.595 21.0402 26.965 21.951 27.3433C22.6931 27.6517 23.3773 28.0607 24.0796 28.4417C25.1127 29.0026 26.0493 29.6926 26.9901 30.3822C27.1775 30.5197 27.389 30.6279 27.5988 30.7329C27.6824 30.7749 27.8132 30.8213 27.874 30.7158C27.9172 30.6416 27.9156 30.5225 27.8923 30.435C27.6195 29.4325 27.2382 28.4666 26.835 27.5101C26.5158 26.752 26.141 26.0166 25.831 25.255C25.5212 24.4947 25.2106 23.7331 25.0063 22.9332C24.8769 22.4262 24.6463 21.9531 24.4289 21.4746C24.0893 20.7265 23.5559 20.1173 23.0333 19.4983C22.3152 18.6476 21.513 17.8756 20.6895 17.1251C20.0208 16.5158 19.3284 15.9323 18.6566 15.3266C18.4209 15.1142 18.2031 14.8798 17.9971 14.6396C17.2803 13.8036 16.4682 13.079 15.5485 12.4595C14.7834 11.9436 14.0603 11.369 13.3109 10.83C12.8003 10.4627 12.2876 10.0956 11.7565 9.75917C11.1525 9.37704 10.5698 8.96728 9.9919 8.549C9.58496 8.25419 9.14384 8.00507 8.7296 7.7204C8.19049 7.3497 7.66529 6.95881 7.12872 6.58585C6.92953 6.44749 6.70655 6.34102 6.50482 6.20492C6.23345 6.0221 5.96318 5.83648 5.71158 5.63023C5.58507 5.52683 5.47982 5.38638 5.40106 5.24277C5.30939 5.07139 5.43922 4.91762 5.63432 4.96132C5.78105 4.99472 5.92978 5.0421 6.06213 5.11259C6.62555 5.41291 7.17167 5.74857 7.74614 6.02764C9.18009 6.72349 10.5523 7.52222 11.8992 8.36647C12.6321 8.82548 13.3932 9.24139 14.1322 9.69174C14.8711 10.1414 15.6157 10.5858 16.3249 11.0781C16.7636 11.382 17.1459 11.7655 17.5456 12.1223C18.165 12.6742 18.7401 13.268 19.294 13.8834C19.5003 14.1128 19.7258 14.3262 19.9493 14.5405C20.3117 14.888 20.681 15.2281 21.0447 15.5742C21.6137 16.1167 22.2023 16.6418 22.7435 17.2099C23.7802 18.2997 24.8421 19.3716 25.7215 20.5934C25.9878 20.9635 26.2028 21.3727 26.4101 21.78C26.8263 22.5977 27.1068 23.4626 27.3526 24.3456C27.5923 25.2075 27.9051 26.0512 28.2169 26.8915C28.4939 27.6387 28.8141 28.3698 29.113 29.1089C29.2321 29.4044 29.4427 29.6058 29.7419 29.7192C29.9542 29.7997 30.0013 29.7812 30.1015 29.583C30.1768 29.4337 30.2391 29.2781 30.3239 29.1347C30.507 28.8242 30.7884 28.6818 31.1511 28.7179C31.3356 28.7363 31.519 28.7723 31.7006 28.8112C31.8807 28.8496 32.0213 28.8026 32.1109 28.6446C32.1839 28.515 32.2587 28.3819 32.3039 28.2415C32.4891 27.6605 32.5594 27.0566 32.6683 26.4606C32.8267 25.5942 33.011 24.7322 33.1798 23.8676C33.3107 23.1987 33.4605 22.5327 33.5552 21.8591C33.6417 21.2436 33.6656 20.6205 33.7138 20.0004C33.7192 19.9281 33.7092 19.8553 33.7064 19.798C33.7063 19.7964 33.7054 19.7951 33.7041 19.7944V19.7944ZM35.5105 20.3373C35.5093 20.337 35.5082 20.3378 35.5079 20.3389C35.4912 20.4208 35.478 20.4682 35.4724 20.5168C35.383 21.2991 35.2663 22.0752 35.0642 22.8412C34.8949 23.4827 34.7806 24.1379 34.6424 24.7873C34.6305 24.8443 34.6285 24.9032 34.616 24.9597C34.544 25.2833 34.5011 25.6169 34.3922 25.9278C34.0954 26.7762 34.0086 27.6587 33.8961 28.5382C33.8548 28.8589 34.0624 29.0208 34.3766 28.9212C34.5528 28.8655 34.7362 28.8072 34.8892 28.7092C35.2988 28.4476 35.7296 28.2069 36.0084 27.7877C36.0631 27.705 36.1397 27.6358 36.2122 27.5663C36.8022 26.9938 37.4058 26.4349 38.0502 25.922C38.4203 25.6277 38.5672 25.2599 38.5243 24.8035C38.4723 24.2502 38.4212 23.6982 38.3039 23.1523C38.1761 22.5596 38.011 21.9792 37.7857 21.4166C37.6718 21.1333 37.4698 20.9211 37.1738 20.8275C36.6293 20.6555 36.0778 20.5037 35.5105 20.3373V20.3373ZM42.089 33.956C42.3455 34.0152 42.5878 33.8157 42.5945 33.5525V33.5525C42.6004 33.3382 42.5897 33.1215 42.6214 32.9102C42.642 32.7714 42.6067 32.6736 42.4993 32.6129C42.3325 32.5187 42.1601 32.4243 41.9776 32.3687C41.6352 32.264 41.3167 32.1206 41.0213 31.9232C40.8615 31.8162 40.6848 31.7789 40.4922 31.8415C40.1935 31.939 39.8821 31.9662 39.5724 32.0115C39.3087 32.0497 39.0524 32.1439 38.7969 32.2259V32.2259C38.6502 32.2732 38.5609 32.488 38.6922 32.5689C38.7252 32.5893 38.7646 32.6036 38.8082 32.6165C39.2666 32.7501 39.6957 32.9369 40.0168 33.3045C40.0653 33.3606 40.1288 33.4073 40.1923 33.4471C40.2543 33.4858 40.3222 33.5212 40.3926 33.5389C40.9401 33.6769 41.4886 33.8114 42.0376 33.9439C42.0547 33.948 42.0718 33.9521 42.089 33.956Z" stroke="black" stroke-width="4" stroke-linejoin="round" mask="url(#path-1-outside-1_5056_2360)"/>
</g>
<mask id="path-2-outside-2_5056_2360" maskUnits="userSpaceOnUse" x="3.1767" y="-1.2271" width="52.8731" height="69.1107" fill="black">
<rect fill="white" x="3.1767" y="-1.2271" width="52.8731" height="69.1107"/>
<path d="M33.7039 19.7944C32.9854 19.4452 32.2815 19.1049 31.5806 18.7595C31.4531 18.6966 31.331 18.6191 31.2185 18.5333C31.1475 18.4793 31.0685 18.3916 31.1285 18.299C31.1669 18.2395 31.2612 18.1827 31.3311 18.1809C31.4806 18.1776 31.6365 18.192 31.7798 18.2331C32.2415 18.365 32.6979 18.5129 33.1571 18.6545V18.6545C33.2852 18.6942 33.4122 18.5642 33.357 18.442C33.3521 18.431 33.3469 18.4201 33.3415 18.4093C33.2485 18.2233 33.1559 18.0351 33.0414 17.8618C32.4462 16.9598 32.0139 15.9777 31.5683 15.0016C31.4507 14.7443 31.3471 14.475 31.1854 14.2454C30.8914 13.8288 30.6244 13.4002 30.3863 12.9506C30.3236 12.8318 30.1882 12.7501 30.0856 12.6526C29.7222 12.3092 29.314 12.0529 28.8249 11.8926C28.1983 11.6872 27.5637 11.5216 26.9188 11.3847C26.4484 11.2853 25.9828 11.1625 25.5169 11.0445C25.0263 10.92 24.5372 10.7893 24.0476 10.66C23.2888 10.4596 22.527 10.2703 21.7729 10.054C21.3118 9.92132 20.8593 9.75619 20.4105 9.58599C20.216 9.51191 20.03 9.40466 19.9235 9.20703C19.8287 9.03122 19.8706 8.90728 20.0725 8.88427C20.254 8.86385 20.4422 8.88527 20.6263 8.89966C21.4654 8.96714 22.2563 9.25418 23.0761 9.40908C24.8094 9.73704 26.5309 10.1301 28.291 10.3187C28.9239 10.3867 29.5346 10.5538 30.1183 10.8071C30.6391 11.0332 31.0566 11.3607 31.3838 11.8376C31.7301 12.3424 32.0061 12.8814 32.3057 13.4088C32.9881 14.6107 33.6243 15.8386 34.3434 17.0209C34.618 17.4724 34.7711 17.9757 34.9691 18.46C35.0476 18.6522 35.1374 18.8406 35.2067 19.0364C35.2421 19.1362 35.2986 19.1882 35.398 19.2085C35.7119 19.2734 36.0259 19.339 36.3393 19.4059C36.4872 19.4379 36.6365 19.469 36.7819 19.5106C37.1956 19.6282 37.6065 19.7534 38.0208 19.8702C38.5868 20.0294 38.9427 20.3667 39.0144 20.9614C39.1161 21.8107 39.334 22.6376 39.4985 23.4749C39.5736 23.8575 39.6177 24.2464 39.6814 24.6314C39.7391 24.9826 39.8117 25.3318 39.8607 25.6845C39.8891 25.8921 39.8485 26.0962 39.7311 26.2804C39.5628 26.5437 39.3595 26.7778 39.1131 26.9709C38.0399 27.8119 36.962 28.6466 35.8897 29.4889C35.6318 29.6911 35.3871 29.9096 35.1386 30.1237C35.0877 30.1676 35.0453 30.2201 35.0027 30.272C34.645 30.7053 34.6343 30.8992 34.9404 31.3565C34.9915 31.4326 35.0446 31.5071 35.097 31.5831C35.3205 31.9066 35.5439 31.9739 35.9258 31.8558C36.6515 31.6306 37.3804 31.4185 38.1053 31.192C38.6452 31.0233 39.1876 30.8584 39.7156 30.6571C40.3736 30.4059 40.9611 30.5091 41.5505 30.8596C42.1494 31.2159 42.7799 31.5207 43.3932 31.8548C43.5322 31.9307 43.6697 32.0196 43.7816 32.1284C43.9617 32.3043 43.9856 32.4854 43.8107 32.6569C43.5515 32.9118 43.5256 33.25 43.41 33.5547V33.5547C43.2792 33.9006 43.5234 34.277 43.8866 34.3465C43.9002 34.3491 43.9138 34.3516 43.9275 34.3542C44.2751 34.4193 44.6269 34.4854 44.9574 34.6033C45.2979 34.7243 45.6032 34.9249 45.8703 35.1715C46.0981 35.3806 46.3367 35.5807 46.5443 35.8086C46.9778 36.2836 47.3923 36.7759 47.8182 37.2577C47.9835 37.4451 48.1661 37.6187 48.3289 37.8083C48.666 38.2014 49.0129 38.5881 49.3224 39.0013C49.639 39.4239 49.9934 39.8106 50.3538 40.1947C50.6508 40.512 50.9635 40.8203 51.1675 41.207C51.4593 41.7607 51.6278 42.3328 51.4856 42.9771C51.3181 43.7391 51.2039 44.513 51.0596 45.2802C50.7866 46.733 50.5178 48.1875 50.0927 49.6081C50.0666 49.6955 50.0434 49.7846 50.008 49.8688C49.851 50.2456 49.6904 50.6207 49.5307 50.997C49.5178 51.0279 49.5041 51.0582 49.489 51.0879C49.4025 51.2565 49.3162 51.3246 49.2084 51.2889C49.0559 51.2378 49.085 51.1016 49.0988 50.9931C49.1701 50.4504 49.2365 49.9062 49.3329 49.3673C49.4195 48.8846 49.4792 48.4017 49.522 47.9136C49.5638 47.4364 49.6811 46.9663 49.7643 46.4927C49.8034 46.2719 49.8459 46.0515 49.8745 45.8298C49.9171 45.5008 49.9424 45.1695 49.9884 44.8409C50.0607 44.3231 50.1629 43.8092 50.2151 43.2899C50.258 42.8619 50.1701 42.4454 49.9018 42.0897C49.6255 41.7233 49.3484 41.3556 49.0536 41.0038C48.5227 40.3694 47.9764 39.7466 47.4391 39.1168C47.0484 38.6587 46.6862 38.1743 46.2653 37.7453C45.8565 37.3287 45.3921 36.9631 44.9437 36.5852C44.8511 36.507 44.7249 36.4581 44.6059 36.4201C44.1087 36.2612 43.6118 36.0989 43.1072 35.9636C42.8121 35.8844 42.5125 35.819 42.2063 35.8001C41.9461 35.7839 41.7281 35.9662 41.7611 36.2249V36.2249C41.8262 36.7351 41.8724 37.2486 41.8966 37.7627C41.9362 38.6158 41.6293 39.3929 41.3017 40.1619C41.1908 40.4224 41.0707 40.6798 40.9434 40.9337C40.7611 41.2974 40.4967 41.5979 40.1803 41.8575C39.7765 42.1887 39.3667 42.507 38.8873 42.7347C38.0731 43.122 37.258 43.1345 36.4332 42.794C36.0172 42.6221 35.6394 42.3893 35.3092 42.0839C35.1248 41.9131 34.9211 41.763 34.7386 41.5907C34.1709 41.0549 33.7447 40.4302 33.4605 39.7018C33.2406 39.138 33.1271 38.5581 33.0473 37.965C33.0153 37.7266 32.9723 37.4886 32.8412 37.2772C32.6727 37.0051 32.4378 37.0056 32.2793 37.2854C32.1649 37.487 32.1297 37.7121 32.1467 37.9363C32.1981 38.6157 32.2448 39.2956 32.3262 39.9715C32.3791 40.4108 32.4058 40.8492 32.3693 41.2868C32.3162 41.914 32.2684 42.5461 32.147 43.1623C32.0563 43.6225 32.0187 44.0709 32.0255 44.5388C32.0333 45.0525 32.0395 45.5656 32.0692 46.0785C32.0808 46.283 32.0261 46.4904 32.0173 46.6969C32.0068 46.9358 31.9917 47.1772 32.0173 47.4135C32.0558 47.7645 32.034 48.1103 31.9791 48.4552C31.8629 49.1855 31.7375 49.9125 31.4699 50.6111C31.3761 50.8559 31.3309 51.1284 31.3164 51.3907C31.2806 52.0554 31.1697 52.7103 31.0657 53.3659C30.9385 54.1693 30.7995 54.9718 30.6806 55.7764C30.6363 56.0792 30.6371 56.3879 30.6143 56.6941C30.582 57.1252 30.5134 57.5503 30.4108 57.9725C30.1789 58.9267 30.0082 59.8892 29.9488 60.8723C29.9209 61.3293 29.9437 61.7835 29.9321 62.2383C29.9258 62.4782 29.9153 62.7179 29.8924 62.9566V62.9566C29.8759 63.1332 29.6454 63.2664 29.5925 63.0971C29.5917 63.0946 29.591 63.0921 29.5902 63.0895C29.5155 62.8356 29.4183 62.5832 29.3843 62.3235C29.2485 61.2724 29.2789 60.222 29.447 59.1734C29.5323 58.6409 29.6015 58.1045 29.6534 57.5677C29.6869 57.2221 29.6685 56.8726 29.6861 56.5251C29.7049 56.1694 29.7235 55.8124 29.7701 55.4595C29.8478 54.8751 29.9561 54.2946 30.0352 53.7101C30.0939 53.2745 30.113 52.8345 30.171 52.399C30.256 51.7681 30.2597 51.134 30.1656 50.5125C30.0332 49.6378 30.2696 48.7965 30.3306 47.94C30.3712 47.3699 30.4567 46.8023 30.4965 46.2316C30.5174 45.9351 30.5033 45.6317 30.4667 45.3365C30.404 44.83 30.4466 44.3258 30.4548 43.8201C30.4674 43.0106 30.6775 42.2271 30.7687 41.4277C30.8016 41.1415 30.7891 40.8696 30.7264 40.5897C30.5914 39.9862 30.5448 39.3731 30.6423 38.7585C30.6913 38.4532 30.6472 38.1668 30.5442 37.8826C30.483 37.7131 30.3426 37.6521 30.1909 37.756C30.0682 37.8396 29.9509 37.9444 29.8653 38.0637C29.1851 39.0073 28.5196 39.9604 27.8357 40.901C27.4518 41.4292 27.0217 41.926 26.6494 42.4612C26.3927 42.8298 26.1933 43.2375 25.9819 43.6349C25.8803 43.8258 25.8256 44.0406 25.7262 44.2326C25.4033 44.8548 25.2785 45.538 25.0794 46.1978C24.928 46.6994 24.7752 47.2012 24.6216 47.7017C24.6048 47.7572 24.579 47.8109 24.5544 47.8637C24.5183 47.9406 24.4807 48.023 24.3744 48.0101C24.2604 47.9958 24.1883 47.9231 24.1753 47.8144C24.158 47.6664 24.1473 47.5164 24.1512 47.3677C24.1811 46.208 24.5241 45.1134 24.8584 44.0128C25.0246 43.4639 25.2863 42.9661 25.5511 42.4639C25.656 42.2646 25.7509 42.0602 25.8522 41.8585C25.8932 41.7765 25.9291 41.6902 25.9826 41.6164C26.4123 41.0192 26.8066 40.397 27.3447 39.8793C27.5684 39.6641 27.7024 39.3792 27.844 39.1023C28.1242 38.5528 28.4121 38.0047 28.7366 37.48C28.9948 37.0621 29.3068 36.6755 29.6059 36.2827C29.7876 36.0445 29.8529 35.7741 29.8689 35.4908C29.8847 35.2129 29.968 34.9738 30.1703 34.7721C30.2953 34.6471 30.401 34.5071 30.4398 34.3275C30.4656 34.2078 30.4505 34.1054 30.3335 34.0516C30.2063 33.9928 30.0723 33.9191 29.9376 33.9109C29.0378 33.8552 28.3309 33.4315 27.7338 32.8094C27.0842 32.1329 26.404 31.4889 25.6874 30.8821C25.2313 30.4955 24.7013 30.2136 24.1727 29.9329C23.4582 29.5531 22.7206 29.2266 21.9591 28.9463C21.493 28.775 21.0578 28.5375 20.6691 28.2173C20.2915 27.9063 19.8702 27.6776 19.3719 27.5734C18.8772 27.4702 18.3992 27.2973 17.9106 27.1646C17.6914 27.1049 17.4659 27.0675 17.2427 27.0237C16.3901 26.8557 15.5364 26.6912 14.6848 26.5191C14.5538 26.4923 14.4261 26.4416 14.3023 26.3898C14.1929 26.3442 14.0781 26.2848 14.0874 26.1424C14.0961 26.0081 14.2204 25.9856 14.3204 25.9452C14.6877 25.7968 15.069 25.8405 15.448 25.8669C15.8097 25.8923 16.1703 25.9353 16.5331 25.9571C17.1597 25.9947 17.7758 26.0878 18.3841 26.237C18.638 26.2994 18.8919 26.3618 19.1493 26.4105C20.1278 26.595 21.0399 26.965 21.9507 27.3433C22.6929 27.6517 23.3771 28.0607 24.0793 28.4417C25.1124 29.0026 26.0491 29.6926 26.9898 30.3822C27.1773 30.5197 27.3887 30.6279 27.5985 30.7329C27.6822 30.7749 27.8129 30.8213 27.8738 30.7158C27.917 30.6416 27.9154 30.5225 27.8921 30.435C27.6193 29.4325 27.2379 28.4666 26.8348 27.5101C26.5155 26.752 26.1407 26.0166 25.8308 25.255C25.521 24.4947 25.2103 23.7331 25.006 22.9332C24.8766 22.4262 24.646 21.9531 24.4286 21.4746C24.089 20.7265 23.5557 20.1173 23.0331 19.4983C22.3149 18.6476 21.5128 17.8756 20.6893 17.1251C20.0206 16.5158 19.3282 15.9323 18.6564 15.3266C18.4207 15.1142 18.2029 14.8798 17.9969 14.6396C17.2801 13.8036 16.468 13.079 15.5482 12.4595C14.7832 11.9436 14.06 11.369 13.3107 10.83C12.8 10.4627 12.2874 10.0956 11.7563 9.75917C11.1522 9.37704 10.5696 8.96728 9.99165 8.549C9.58471 8.25419 9.14359 8.00507 8.72936 7.7204C8.19025 7.3497 7.66505 6.95881 7.12847 6.58585C6.92929 6.44749 6.7063 6.34102 6.50458 6.20492C6.2332 6.0221 5.96293 5.83648 5.71134 5.63023C5.58483 5.52683 5.47957 5.38638 5.40082 5.24277C5.30914 5.07139 5.43898 4.91762 5.63408 4.96132C5.78081 4.99472 5.92954 5.0421 6.06189 5.11259C6.6253 5.41291 7.17143 5.74857 7.7459 6.02764C9.17985 6.72349 10.552 7.52222 11.8989 8.36647C12.6318 8.82548 13.393 9.24139 14.1319 9.69174C14.8708 10.1414 15.6154 10.5858 16.3247 11.0781C16.7634 11.382 17.1457 11.7655 17.5454 12.1223C18.1647 12.6742 18.7399 13.268 19.2937 13.8834C19.5001 14.1128 19.7256 14.3262 19.9491 14.5405C20.3115 14.888 20.6808 15.2281 21.0444 15.5742C21.6134 16.1167 22.2021 16.6418 22.7432 17.2099C23.78 18.2997 24.8418 19.3716 25.7213 20.5934C25.9876 20.9635 26.2026 21.3727 26.4099 21.78C26.8261 22.5977 27.1066 23.4626 27.3523 24.3456C27.592 25.2075 27.9049 26.0512 28.2167 26.8915C28.4937 27.6387 28.8138 28.3698 29.1127 29.1089C29.2319 29.4044 29.4425 29.6058 29.7417 29.7192C29.954 29.7997 30.001 29.7812 30.1013 29.583C30.1765 29.4337 30.2389 29.2781 30.3237 29.1347C30.5068 28.8242 30.7882 28.6818 31.1509 28.7179C31.3353 28.7363 31.5187 28.7723 31.7003 28.8112C31.8805 28.8496 32.0211 28.8026 32.1106 28.6446C32.1837 28.515 32.2584 28.3819 32.3036 28.2415C32.4888 27.6605 32.5592 27.0566 32.6681 26.4606C32.8265 25.5942 33.0107 24.7322 33.1796 23.8676C33.3105 23.1987 33.4602 22.5327 33.555 21.8591C33.6414 21.2436 33.6653 20.6205 33.7136 20.0004C33.719 19.9281 33.709 19.8553 33.7061 19.798C33.7061 19.7964 33.7052 19.7951 33.7039 19.7944V19.7944ZM35.5102 20.3373C35.5091 20.337 35.5079 20.3378 35.5077 20.3389C35.491 20.4208 35.4778 20.4682 35.4721 20.5168C35.3828 21.2991 35.2661 22.0752 35.0639 22.8412C34.8947 23.4827 34.7804 24.1379 34.6421 24.7873C34.6303 24.8443 34.6283 24.9032 34.6157 24.9597C34.5437 25.2833 34.5009 25.6169 34.392 25.9278C34.0952 26.7762 34.0084 27.6587 33.8959 28.5382C33.8546 28.8589 34.0621 29.0208 34.3764 28.9212C34.5525 28.8655 34.736 28.8072 34.8889 28.7092C35.2986 28.4476 35.7294 28.2069 36.0081 27.7877C36.0629 27.705 36.1395 27.6358 36.212 27.5663C36.802 26.9938 37.4056 26.4349 38.0499 25.922C38.4201 25.6277 38.5669 25.2599 38.5241 24.8035C38.4721 24.2502 38.4209 23.6982 38.3037 23.1523C38.1759 22.5596 38.0107 21.9792 37.7854 21.4166C37.6716 21.1333 37.4696 20.9211 37.1736 20.8275C36.6291 20.6555 36.0776 20.5037 35.5102 20.3373V20.3373ZM42.0888 33.956C42.3453 34.0152 42.5875 33.8157 42.5942 33.5525V33.5525C42.6002 33.3382 42.5895 33.1215 42.6211 32.9102C42.6418 32.7714 42.6065 32.6736 42.4991 32.6129C42.3322 32.5187 42.1598 32.4243 41.9774 32.3687C41.635 32.264 41.3165 32.1206 41.0211 31.9232C40.8612 31.8162 40.6846 31.7789 40.4919 31.8415C40.1933 31.939 39.8819 31.9662 39.5721 32.0115C39.3085 32.0497 39.0521 32.1439 38.7967 32.2259V32.2259C38.6499 32.2732 38.5606 32.488 38.6919 32.5689C38.725 32.5893 38.7644 32.6036 38.808 32.6165C39.2664 32.7501 39.6955 32.9369 40.0165 33.3045C40.0651 33.3606 40.1285 33.4073 40.192 33.4471C40.2541 33.4858 40.322 33.5212 40.3924 33.5389C40.9398 33.6769 41.4884 33.8114 42.0374 33.9439C42.0545 33.948 42.0716 33.9521 42.0888 33.956Z"/>
</mask>
<path d="M33.7039 19.7944C32.9854 19.4452 32.2815 19.1049 31.5806 18.7595C31.4531 18.6966 31.331 18.6191 31.2185 18.5333C31.1475 18.4793 31.0685 18.3916 31.1285 18.299C31.1669 18.2395 31.2612 18.1827 31.3311 18.1809C31.4806 18.1776 31.6365 18.192 31.7798 18.2331C32.2415 18.365 32.6979 18.5129 33.1571 18.6545V18.6545C33.2852 18.6942 33.4122 18.5642 33.357 18.442C33.3521 18.431 33.3469 18.4201 33.3415 18.4093C33.2485 18.2233 33.1559 18.0351 33.0414 17.8618C32.4462 16.9598 32.0139 15.9777 31.5683 15.0016C31.4507 14.7443 31.3471 14.475 31.1854 14.2454C30.8914 13.8288 30.6244 13.4002 30.3863 12.9506C30.3236 12.8318 30.1882 12.7501 30.0856 12.6526C29.7222 12.3092 29.314 12.0529 28.8249 11.8926C28.1983 11.6872 27.5637 11.5216 26.9188 11.3847C26.4484 11.2853 25.9828 11.1625 25.5169 11.0445C25.0263 10.92 24.5372 10.7893 24.0476 10.66C23.2888 10.4596 22.527 10.2703 21.7729 10.054C21.3118 9.92132 20.8593 9.75619 20.4105 9.58599C20.216 9.51191 20.03 9.40466 19.9235 9.20703C19.8287 9.03122 19.8706 8.90728 20.0725 8.88427C20.254 8.86385 20.4422 8.88527 20.6263 8.89966C21.4654 8.96714 22.2563 9.25418 23.0761 9.40908C24.8094 9.73704 26.5309 10.1301 28.291 10.3187C28.9239 10.3867 29.5346 10.5538 30.1183 10.8071C30.6391 11.0332 31.0566 11.3607 31.3838 11.8376C31.7301 12.3424 32.0061 12.8814 32.3057 13.4088C32.9881 14.6107 33.6243 15.8386 34.3434 17.0209C34.618 17.4724 34.7711 17.9757 34.9691 18.46C35.0476 18.6522 35.1374 18.8406 35.2067 19.0364C35.2421 19.1362 35.2986 19.1882 35.398 19.2085C35.7119 19.2734 36.0259 19.339 36.3393 19.4059C36.4872 19.4379 36.6365 19.469 36.7819 19.5106C37.1956 19.6282 37.6065 19.7534 38.0208 19.8702C38.5868 20.0294 38.9427 20.3667 39.0144 20.9614C39.1161 21.8107 39.334 22.6376 39.4985 23.4749C39.5736 23.8575 39.6177 24.2464 39.6814 24.6314C39.7391 24.9826 39.8117 25.3318 39.8607 25.6845C39.8891 25.8921 39.8485 26.0962 39.7311 26.2804C39.5628 26.5437 39.3595 26.7778 39.1131 26.9709C38.0399 27.8119 36.962 28.6466 35.8897 29.4889C35.6318 29.6911 35.3871 29.9096 35.1386 30.1237C35.0877 30.1676 35.0453 30.2201 35.0027 30.272C34.645 30.7053 34.6343 30.8992 34.9404 31.3565C34.9915 31.4326 35.0446 31.5071 35.097 31.5831C35.3205 31.9066 35.5439 31.9739 35.9258 31.8558C36.6515 31.6306 37.3804 31.4185 38.1053 31.192C38.6452 31.0233 39.1876 30.8584 39.7156 30.6571C40.3736 30.4059 40.9611 30.5091 41.5505 30.8596C42.1494 31.2159 42.7799 31.5207 43.3932 31.8548C43.5322 31.9307 43.6697 32.0196 43.7816 32.1284C43.9617 32.3043 43.9856 32.4854 43.8107 32.6569C43.5515 32.9118 43.5256 33.25 43.41 33.5547V33.5547C43.2792 33.9006 43.5234 34.277 43.8866 34.3465C43.9002 34.3491 43.9138 34.3516 43.9275 34.3542C44.2751 34.4193 44.6269 34.4854 44.9574 34.6033C45.2979 34.7243 45.6032 34.9249 45.8703 35.1715C46.0981 35.3806 46.3367 35.5807 46.5443 35.8086C46.9778 36.2836 47.3923 36.7759 47.8182 37.2577C47.9835 37.4451 48.1661 37.6187 48.3289 37.8083C48.666 38.2014 49.0129 38.5881 49.3224 39.0013C49.639 39.4239 49.9934 39.8106 50.3538 40.1947C50.6508 40.512 50.9635 40.8203 51.1675 41.207C51.4593 41.7607 51.6278 42.3328 51.4856 42.9771C51.3181 43.7391 51.2039 44.513 51.0596 45.2802C50.7866 46.733 50.5178 48.1875 50.0927 49.6081C50.0666 49.6955 50.0434 49.7846 50.008 49.8688C49.851 50.2456 49.6904 50.6207 49.5307 50.997C49.5178 51.0279 49.5041 51.0582 49.489 51.0879C49.4025 51.2565 49.3162 51.3246 49.2084 51.2889C49.0559 51.2378 49.085 51.1016 49.0988 50.9931C49.1701 50.4504 49.2365 49.9062 49.3329 49.3673C49.4195 48.8846 49.4792 48.4017 49.522 47.9136C49.5638 47.4364 49.6811 46.9663 49.7643 46.4927C49.8034 46.2719 49.8459 46.0515 49.8745 45.8298C49.9171 45.5008 49.9424 45.1695 49.9884 44.8409C50.0607 44.3231 50.1629 43.8092 50.2151 43.2899C50.258 42.8619 50.1701 42.4454 49.9018 42.0897C49.6255 41.7233 49.3484 41.3556 49.0536 41.0038C48.5227 40.3694 47.9764 39.7466 47.4391 39.1168C47.0484 38.6587 46.6862 38.1743 46.2653 37.7453C45.8565 37.3287 45.3921 36.9631 44.9437 36.5852C44.8511 36.507 44.7249 36.4581 44.6059 36.4201C44.1087 36.2612 43.6118 36.0989 43.1072 35.9636C42.8121 35.8844 42.5125 35.819 42.2063 35.8001C41.9461 35.7839 41.7281 35.9662 41.7611 36.2249V36.2249C41.8262 36.7351 41.8724 37.2486 41.8966 37.7627C41.9362 38.6158 41.6293 39.3929 41.3017 40.1619C41.1908 40.4224 41.0707 40.6798 40.9434 40.9337C40.7611 41.2974 40.4967 41.5979 40.1803 41.8575C39.7765 42.1887 39.3667 42.507 38.8873 42.7347C38.0731 43.122 37.258 43.1345 36.4332 42.794C36.0172 42.6221 35.6394 42.3893 35.3092 42.0839C35.1248 41.9131 34.9211 41.763 34.7386 41.5907C34.1709 41.0549 33.7447 40.4302 33.4605 39.7018C33.2406 39.138 33.1271 38.5581 33.0473 37.965C33.0153 37.7266 32.9723 37.4886 32.8412 37.2772C32.6727 37.0051 32.4378 37.0056 32.2793 37.2854C32.1649 37.487 32.1297 37.7121 32.1467 37.9363C32.1981 38.6157 32.2448 39.2956 32.3262 39.9715C32.3791 40.4108 32.4058 40.8492 32.3693 41.2868C32.3162 41.914 32.2684 42.5461 32.147 43.1623C32.0563 43.6225 32.0187 44.0709 32.0255 44.5388C32.0333 45.0525 32.0395 45.5656 32.0692 46.0785C32.0808 46.283 32.0261 46.4904 32.0173 46.6969C32.0068 46.9358 31.9917 47.1772 32.0173 47.4135C32.0558 47.7645 32.034 48.1103 31.9791 48.4552C31.8629 49.1855 31.7375 49.9125 31.4699 50.6111C31.3761 50.8559 31.3309 51.1284 31.3164 51.3907C31.2806 52.0554 31.1697 52.7103 31.0657 53.3659C30.9385 54.1693 30.7995 54.9718 30.6806 55.7764C30.6363 56.0792 30.6371 56.3879 30.6143 56.6941C30.582 57.1252 30.5134 57.5503 30.4108 57.9725C30.1789 58.9267 30.0082 59.8892 29.9488 60.8723C29.9209 61.3293 29.9437 61.7835 29.9321 62.2383C29.9258 62.4782 29.9153 62.7179 29.8924 62.9566V62.9566C29.8759 63.1332 29.6454 63.2664 29.5925 63.0971C29.5917 63.0946 29.591 63.0921 29.5902 63.0895C29.5155 62.8356 29.4183 62.5832 29.3843 62.3235C29.2485 61.2724 29.2789 60.222 29.447 59.1734C29.5323 58.6409 29.6015 58.1045 29.6534 57.5677C29.6869 57.2221 29.6685 56.8726 29.6861 56.5251C29.7049 56.1694 29.7235 55.8124 29.7701 55.4595C29.8478 54.8751 29.9561 54.2946 30.0352 53.7101C30.0939 53.2745 30.113 52.8345 30.171 52.399C30.256 51.7681 30.2597 51.134 30.1656 50.5125C30.0332 49.6378 30.2696 48.7965 30.3306 47.94C30.3712 47.3699 30.4567 46.8023 30.4965 46.2316C30.5174 45.9351 30.5033 45.6317 30.4667 45.3365C30.404 44.83 30.4466 44.3258 30.4548 43.8201C30.4674 43.0106 30.6775 42.2271 30.7687 41.4277C30.8016 41.1415 30.7891 40.8696 30.7264 40.5897C30.5914 39.9862 30.5448 39.3731 30.6423 38.7585C30.6913 38.4532 30.6472 38.1668 30.5442 37.8826C30.483 37.7131 30.3426 37.6521 30.1909 37.756C30.0682 37.8396 29.9509 37.9444 29.8653 38.0637C29.1851 39.0073 28.5196 39.9604 27.8357 40.901C27.4518 41.4292 27.0217 41.926 26.6494 42.4612C26.3927 42.8298 26.1933 43.2375 25.9819 43.6349C25.8803 43.8258 25.8256 44.0406 25.7262 44.2326C25.4033 44.8548 25.2785 45.538 25.0794 46.1978C24.928 46.6994 24.7752 47.2012 24.6216 47.7017C24.6048 47.7572 24.579 47.8109 24.5544 47.8637C24.5183 47.9406 24.4807 48.023 24.3744 48.0101C24.2604 47.9958 24.1883 47.9231 24.1753 47.8144C24.158 47.6664 24.1473 47.5164 24.1512 47.3677C24.1811 46.208 24.5241 45.1134 24.8584 44.0128C25.0246 43.4639 25.2863 42.9661 25.5511 42.4639C25.656 42.2646 25.7509 42.0602 25.8522 41.8585C25.8932 41.7765 25.9291 41.6902 25.9826 41.6164C26.4123 41.0192 26.8066 40.397 27.3447 39.8793C27.5684 39.6641 27.7024 39.3792 27.844 39.1023C28.1242 38.5528 28.4121 38.0047 28.7366 37.48C28.9948 37.0621 29.3068 36.6755 29.6059 36.2827C29.7876 36.0445 29.8529 35.7741 29.8689 35.4908C29.8847 35.2129 29.968 34.9738 30.1703 34.7721C30.2953 34.6471 30.401 34.5071 30.4398 34.3275C30.4656 34.2078 30.4505 34.1054 30.3335 34.0516C30.2063 33.9928 30.0723 33.9191 29.9376 33.9109C29.0378 33.8552 28.3309 33.4315 27.7338 32.8094C27.0842 32.1329 26.404 31.4889 25.6874 30.8821C25.2313 30.4955 24.7013 30.2136 24.1727 29.9329C23.4582 29.5531 22.7206 29.2266 21.9591 28.9463C21.493 28.775 21.0578 28.5375 20.6691 28.2173C20.2915 27.9063 19.8702 27.6776 19.3719 27.5734C18.8772 27.4702 18.3992 27.2973 17.9106 27.1646C17.6914 27.1049 17.4659 27.0675 17.2427 27.0237C16.3901 26.8557 15.5364 26.6912 14.6848 26.5191C14.5538 26.4923 14.4261 26.4416 14.3023 26.3898C14.1929 26.3442 14.0781 26.2848 14.0874 26.1424C14.0961 26.0081 14.2204 25.9856 14.3204 25.9452C14.6877 25.7968 15.069 25.8405 15.448 25.8669C15.8097 25.8923 16.1703 25.9353 16.5331 25.9571C17.1597 25.9947 17.7758 26.0878 18.3841 26.237C18.638 26.2994 18.8919 26.3618 19.1493 26.4105C20.1278 26.595 21.0399 26.965 21.9507 27.3433C22.6929 27.6517 23.3771 28.0607 24.0793 28.4417C25.1124 29.0026 26.0491 29.6926 26.9898 30.3822C27.1773 30.5197 27.3887 30.6279 27.5985 30.7329C27.6822 30.7749 27.8129 30.8213 27.8738 30.7158C27.917 30.6416 27.9154 30.5225 27.8921 30.435C27.6193 29.4325 27.2379 28.4666 26.8348 27.5101C26.5155 26.752 26.1407 26.0166 25.8308 25.255C25.521 24.4947 25.2103 23.7331 25.006 22.9332C24.8766 22.4262 24.646 21.9531 24.4286 21.4746C24.089 20.7265 23.5557 20.1173 23.0331 19.4983C22.3149 18.6476 21.5128 17.8756 20.6893 17.1251C20.0206 16.5158 19.3282 15.9323 18.6564 15.3266C18.4207 15.1142 18.2029 14.8798 17.9969 14.6396C17.2801 13.8036 16.468 13.079 15.5482 12.4595C14.7832 11.9436 14.06 11.369 13.3107 10.83C12.8 10.4627 12.2874 10.0956 11.7563 9.75917C11.1522 9.37704 10.5696 8.96728 9.99165 8.549C9.58471 8.25419 9.14359 8.00507 8.72936 7.7204C8.19025 7.3497 7.66505 6.95881 7.12847 6.58585C6.92929 6.44749 6.7063 6.34102 6.50458 6.20492C6.2332 6.0221 5.96293 5.83648 5.71134 5.63023C5.58483 5.52683 5.47957 5.38638 5.40082 5.24277C5.30914 5.07139 5.43898 4.91762 5.63408 4.96132C5.78081 4.99472 5.92954 5.0421 6.06189 5.11259C6.6253 5.41291 7.17143 5.74857 7.7459 6.02764C9.17985 6.72349 10.552 7.52222 11.8989 8.36647C12.6318 8.82548 13.393 9.24139 14.1319 9.69174C14.8708 10.1414 15.6154 10.5858 16.3247 11.0781C16.7634 11.382 17.1457 11.7655 17.5454 12.1223C18.1647 12.6742 18.7399 13.268 19.2937 13.8834C19.5001 14.1128 19.7256 14.3262 19.9491 14.5405C20.3115 14.888 20.6808 15.2281 21.0444 15.5742C21.6134 16.1167 22.2021 16.6418 22.7432 17.2099C23.78 18.2997 24.8418 19.3716 25.7213 20.5934C25.9876 20.9635 26.2026 21.3727 26.4099 21.78C26.8261 22.5977 27.1066 23.4626 27.3523 24.3456C27.592 25.2075 27.9049 26.0512 28.2167 26.8915C28.4937 27.6387 28.8138 28.3698 29.1127 29.1089C29.2319 29.4044 29.4425 29.6058 29.7417 29.7192C29.954 29.7997 30.001 29.7812 30.1013 29.583C30.1765 29.4337 30.2389 29.2781 30.3237 29.1347C30.5068 28.8242 30.7882 28.6818 31.1509 28.7179C31.3353 28.7363 31.5187 28.7723 31.7003 28.8112C31.8805 28.8496 32.0211 28.8026 32.1106 28.6446C32.1837 28.515 32.2584 28.3819 32.3036 28.2415C32.4888 27.6605 32.5592 27.0566 32.6681 26.4606C32.8265 25.5942 33.0107 24.7322 33.1796 23.8676C33.3105 23.1987 33.4602 22.5327 33.555 21.8591C33.6414 21.2436 33.6653 20.6205 33.7136 20.0004C33.719 19.9281 33.709 19.8553 33.7061 19.798C33.7061 19.7964 33.7052 19.7951 33.7039 19.7944V19.7944ZM35.5102 20.3373C35.5091 20.337 35.5079 20.3378 35.5077 20.3389C35.491 20.4208 35.4778 20.4682 35.4721 20.5168C35.3828 21.2991 35.2661 22.0752 35.0639 22.8412C34.8947 23.4827 34.7804 24.1379 34.6421 24.7873C34.6303 24.8443 34.6283 24.9032 34.6157 24.9597C34.5437 25.2833 34.5009 25.6169 34.392 25.9278C34.0952 26.7762 34.0084 27.6587 33.8959 28.5382C33.8546 28.8589 34.0621 29.0208 34.3764 28.9212C34.5525 28.8655 34.736 28.8072 34.8889 28.7092C35.2986 28.4476 35.7294 28.2069 36.0081 27.7877C36.0629 27.705 36.1395 27.6358 36.212 27.5663C36.802 26.9938 37.4056 26.4349 38.0499 25.922C38.4201 25.6277 38.5669 25.2599 38.5241 24.8035C38.4721 24.2502 38.4209 23.6982 38.3037 23.1523C38.1759 22.5596 38.0107 21.9792 37.7854 21.4166C37.6716 21.1333 37.4696 20.9211 37.1736 20.8275C36.6291 20.6555 36.0776 20.5037 35.5102 20.3373V20.3373ZM42.0888 33.956C42.3453 34.0152 42.5875 33.8157 42.5942 33.5525V33.5525C42.6002 33.3382 42.5895 33.1215 42.6211 32.9102C42.6418 32.7714 42.6065 32.6736 42.4991 32.6129C42.3322 32.5187 42.1598 32.4243 41.9774 32.3687C41.635 32.264 41.3165 32.1206 41.0211 31.9232C40.8612 31.8162 40.6846 31.7789 40.4919 31.8415C40.1933 31.939 39.8819 31.9662 39.5721 32.0115C39.3085 32.0497 39.0521 32.1439 38.7967 32.2259V32.2259C38.6499 32.2732 38.5606 32.488 38.6919 32.5689C38.725 32.5893 38.7644 32.6036 38.808 32.6165C39.2664 32.7501 39.6955 32.9369 40.0165 33.3045C40.0651 33.3606 40.1285 33.4073 40.192 33.4471C40.2541 33.4858 40.322 33.5212 40.3924 33.5389C40.9398 33.6769 41.4884 33.8114 42.0374 33.9439C42.0545 33.948 42.0716 33.9521 42.0888 33.956Z" fill="white"/>
<path d="M33.7039 19.7944C32.9854 19.4452 32.2815 19.1049 31.5806 18.7595C31.4531 18.6966 31.331 18.6191 31.2185 18.5333C31.1475 18.4793 31.0685 18.3916 31.1285 18.299C31.1669 18.2395 31.2612 18.1827 31.3311 18.1809C31.4806 18.1776 31.6365 18.192 31.7798 18.2331C32.2415 18.365 32.6979 18.5129 33.1571 18.6545V18.6545C33.2852 18.6942 33.4122 18.5642 33.357 18.442C33.3521 18.431 33.3469 18.4201 33.3415 18.4093C33.2485 18.2233 33.1559 18.0351 33.0414 17.8618C32.4462 16.9598 32.0139 15.9777 31.5683 15.0016C31.4507 14.7443 31.3471 14.475 31.1854 14.2454C30.8914 13.8288 30.6244 13.4002 30.3863 12.9506C30.3236 12.8318 30.1882 12.7501 30.0856 12.6526C29.7222 12.3092 29.314 12.0529 28.8249 11.8926C28.1983 11.6872 27.5637 11.5216 26.9188 11.3847C26.4484 11.2853 25.9828 11.1625 25.5169 11.0445C25.0263 10.92 24.5372 10.7893 24.0476 10.66C23.2888 10.4596 22.527 10.2703 21.7729 10.054C21.3118 9.92132 20.8593 9.75619 20.4105 9.58599C20.216 9.51191 20.03 9.40466 19.9235 9.20703C19.8287 9.03122 19.8706 8.90728 20.0725 8.88427C20.254 8.86385 20.4422 8.88527 20.6263 8.89966C21.4654 8.96714 22.2563 9.25418 23.0761 9.40908C24.8094 9.73704 26.5309 10.1301 28.291 10.3187C28.9239 10.3867 29.5346 10.5538 30.1183 10.8071C30.6391 11.0332 31.0566 11.3607 31.3838 11.8376C31.7301 12.3424 32.0061 12.8814 32.3057 13.4088C32.9881 14.6107 33.6243 15.8386 34.3434 17.0209C34.618 17.4724 34.7711 17.9757 34.9691 18.46C35.0476 18.6522 35.1374 18.8406 35.2067 19.0364C35.2421 19.1362 35.2986 19.1882 35.398 19.2085C35.7119 19.2734 36.0259 19.339 36.3393 19.4059C36.4872 19.4379 36.6365 19.469 36.7819 19.5106C37.1956 19.6282 37.6065 19.7534 38.0208 19.8702C38.5868 20.0294 38.9427 20.3667 39.0144 20.9614C39.1161 21.8107 39.334 22.6376 39.4985 23.4749C39.5736 23.8575 39.6177 24.2464 39.6814 24.6314C39.7391 24.9826 39.8117 25.3318 39.8607 25.6845C39.8891 25.8921 39.8485 26.0962 39.7311 26.2804C39.5628 26.5437 39.3595 26.7778 39.1131 26.9709C38.0399 27.8119 36.962 28.6466 35.8897 29.4889C35.6318 29.6911 35.3871 29.9096 35.1386 30.1237C35.0877 30.1676 35.0453 30.2201 35.0027 30.272C34.645 30.7053 34.6343 30.8992 34.9404 31.3565C34.9915 31.4326 35.0446 31.5071 35.097 31.5831C35.3205 31.9066 35.5439 31.9739 35.9258 31.8558C36.6515 31.6306 37.3804 31.4185 38.1053 31.192C38.6452 31.0233 39.1876 30.8584 39.7156 30.6571C40.3736 30.4059 40.9611 30.5091 41.5505 30.8596C42.1494 31.2159 42.7799 31.5207 43.3932 31.8548C43.5322 31.9307 43.6697 32.0196 43.7816 32.1284C43.9617 32.3043 43.9856 32.4854 43.8107 32.6569C43.5515 32.9118 43.5256 33.25 43.41 33.5547V33.5547C43.2792 33.9006 43.5234 34.277 43.8866 34.3465C43.9002 34.3491 43.9138 34.3516 43.9275 34.3542C44.2751 34.4193 44.6269 34.4854 44.9574 34.6033C45.2979 34.7243 45.6032 34.9249 45.8703 35.1715C46.0981 35.3806 46.3367 35.5807 46.5443 35.8086C46.9778 36.2836 47.3923 36.7759 47.8182 37.2577C47.9835 37.4451 48.1661 37.6187 48.3289 37.8083C48.666 38.2014 49.0129 38.5881 49.3224 39.0013C49.639 39.4239 49.9934 39.8106 50.3538 40.1947C50.6508 40.512 50.9635 40.8203 51.1675 41.207C51.4593 41.7607 51.6278 42.3328 51.4856 42.9771C51.3181 43.7391 51.2039 44.513 51.0596 45.2802C50.7866 46.733 50.5178 48.1875 50.0927 49.6081C50.0666 49.6955 50.0434 49.7846 50.008 49.8688C49.851 50.2456 49.6904 50.6207 49.5307 50.997C49.5178 51.0279 49.5041 51.0582 49.489 51.0879C49.4025 51.2565 49.3162 51.3246 49.2084 51.2889C49.0559 51.2378 49.085 51.1016 49.0988 50.9931C49.1701 50.4504 49.2365 49.9062 49.3329 49.3673C49.4195 48.8846 49.4792 48.4017 49.522 47.9136C49.5638 47.4364 49.6811 46.9663 49.7643 46.4927C49.8034 46.2719 49.8459 46.0515 49.8745 45.8298C49.9171 45.5008 49.9424 45.1695 49.9884 44.8409C50.0607 44.3231 50.1629 43.8092 50.2151 43.2899C50.258 42.8619 50.1701 42.4454 49.9018 42.0897C49.6255 41.7233 49.3484 41.3556 49.0536 41.0038C48.5227 40.3694 47.9764 39.7466 47.4391 39.1168C47.0484 38.6587 46.6862 38.1743 46.2653 37.7453C45.8565 37.3287 45.3921 36.9631 44.9437 36.5852C44.8511 36.507 44.7249 36.4581 44.6059 36.4201C44.1087 36.2612 43.6118 36.0989 43.1072 35.9636C42.8121 35.8844 42.5125 35.819 42.2063 35.8001C41.9461 35.7839 41.7281 35.9662 41.7611 36.2249V36.2249C41.8262 36.7351 41.8724 37.2486 41.8966 37.7627C41.9362 38.6158 41.6293 39.3929 41.3017 40.1619C41.1908 40.4224 41.0707 40.6798 40.9434 40.9337C40.7611 41.2974 40.4967 41.5979 40.1803 41.8575C39.7765 42.1887 39.3667 42.507 38.8873 42.7347C38.0731 43.122 37.258 43.1345 36.4332 42.794C36.0172 42.6221 35.6394 42.3893 35.3092 42.0839C35.1248 41.9131 34.9211 41.763 34.7386 41.5907C34.1709 41.0549 33.7447 40.4302 33.4605 39.7018C33.2406 39.138 33.1271 38.5581 33.0473 37.965C33.0153 37.7266 32.9723 37.4886 32.8412 37.2772C32.6727 37.0051 32.4378 37.0056 32.2793 37.2854C32.1649 37.487 32.1297 37.7121 32.1467 37.9363C32.1981 38.6157 32.2448 39.2956 32.3262 39.9715C32.3791 40.4108 32.4058 40.8492 32.3693 41.2868C32.3162 41.914 32.2684 42.5461 32.147 43.1623C32.0563 43.6225 32.0187 44.0709 32.0255 44.5388C32.0333 45.0525 32.0395 45.5656 32.0692 46.0785C32.0808 46.283 32.0261 46.4904 32.0173 46.6969C32.0068 46.9358 31.9917 47.1772 32.0173 47.4135C32.0558 47.7645 32.034 48.1103 31.9791 48.4552C31.8629 49.1855 31.7375 49.9125 31.4699 50.6111C31.3761 50.8559 31.3309 51.1284 31.3164 51.3907C31.2806 52.0554 31.1697 52.7103 31.0657 53.3659C30.9385 54.1693 30.7995 54.9718 30.6806 55.7764C30.6363 56.0792 30.6371 56.3879 30.6143 56.6941C30.582 57.1252 30.5134 57.5503 30.4108 57.9725C30.1789 58.9267 30.0082 59.8892 29.9488 60.8723C29.9209 61.3293 29.9437 61.7835 29.9321 62.2383C29.9258 62.4782 29.9153 62.7179 29.8924 62.9566V62.9566C29.8759 63.1332 29.6454 63.2664 29.5925 63.0971C29.5917 63.0946 29.591 63.0921 29.5902 63.0895C29.5155 62.8356 29.4183 62.5832 29.3843 62.3235C29.2485 61.2724 29.2789 60.222 29.447 59.1734C29.5323 58.6409 29.6015 58.1045 29.6534 57.5677C29.6869 57.2221 29.6685 56.8726 29.6861 56.5251C29.7049 56.1694 29.7235 55.8124 29.7701 55.4595C29.8478 54.8751 29.9561 54.2946 30.0352 53.7101C30.0939 53.2745 30.113 52.8345 30.171 52.399C30.256 51.7681 30.2597 51.134 30.1656 50.5125C30.0332 49.6378 30.2696 48.7965 30.3306 47.94C30.3712 47.3699 30.4567 46.8023 30.4965 46.2316C30.5174 45.9351 30.5033 45.6317 30.4667 45.3365C30.404 44.83 30.4466 44.3258 30.4548 43.8201C30.4674 43.0106 30.6775 42.2271 30.7687 41.4277C30.8016 41.1415 30.7891 40.8696 30.7264 40.5897C30.5914 39.9862 30.5448 39.3731 30.6423 38.7585C30.6913 38.4532 30.6472 38.1668 30.5442 37.8826C30.483 37.7131 30.3426 37.6521 30.1909 37.756C30.0682 37.8396 29.9509 37.9444 29.8653 38.0637C29.1851 39.0073 28.5196 39.9604 27.8357 40.901C27.4518 41.4292 27.0217 41.926 26.6494 42.4612C26.3927 42.8298 26.1933 43.2375 25.9819 43.6349C25.8803 43.8258 25.8256 44.0406 25.7262 44.2326C25.4033 44.8548 25.2785 45.538 25.0794 46.1978C24.928 46.6994 24.7752 47.2012 24.6216 47.7017C24.6048 47.7572 24.579 47.8109 24.5544 47.8637C24.5183 47.9406 24.4807 48.023 24.3744 48.0101C24.2604 47.9958 24.1883 47.9231 24.1753 47.8144C24.158 47.6664 24.1473 47.5164 24.1512 47.3677C24.1811 46.208 24.5241 45.1134 24.8584 44.0128C25.0246 43.4639 25.2863 42.9661 25.5511 42.4639C25.656 42.2646 25.7509 42.0602 25.8522 41.8585C25.8932 41.7765 25.9291 41.6902 25.9826 41.6164C26.4123 41.0192 26.8066 40.397 27.3447 39.8793C27.5684 39.6641 27.7024 39.3792 27.844 39.1023C28.1242 38.5528 28.4121 38.0047 28.7366 37.48C28.9948 37.0621 29.3068 36.6755 29.6059 36.2827C29.7876 36.0445 29.8529 35.7741 29.8689 35.4908C29.8847 35.2129 29.968 34.9738 30.1703 34.7721C30.2953 34.6471 30.401 34.5071 30.4398 34.3275C30.4656 34.2078 30.4505 34.1054 30.3335 34.0516C30.2063 33.9928 30.0723 33.9191 29.9376 33.9109C29.0378 33.8552 28.3309 33.4315 27.7338 32.8094C27.0842 32.1329 26.404 31.4889 25.6874 30.8821C25.2313 30.4955 24.7013 30.2136 24.1727 29.9329C23.4582 29.5531 22.7206 29.2266 21.9591 28.9463C21.493 28.775 21.0578 28.5375 20.6691 28.2173C20.2915 27.9063 19.8702 27.6776 19.3719 27.5734C18.8772 27.4702 18.3992 27.2973 17.9106 27.1646C17.6914 27.1049 17.4659 27.0675 17.2427 27.0237C16.3901 26.8557 15.5364 26.6912 14.6848 26.5191C14.5538 26.4923 14.4261 26.4416 14.3023 26.3898C14.1929 26.3442 14.0781 26.2848 14.0874 26.1424C14.0961 26.0081 14.2204 25.9856 14.3204 25.9452C14.6877 25.7968 15.069 25.8405 15.448 25.8669C15.8097 25.8923 16.1703 25.9353 16.5331 25.9571C17.1597 25.9947 17.7758 26.0878 18.3841 26.237C18.638 26.2994 18.8919 26.3618 19.1493 26.4105C20.1278 26.595 21.0399 26.965 21.9507 27.3433C22.6929 27.6517 23.3771 28.0607 24.0793 28.4417C25.1124 29.0026 26.0491 29.6926 26.9898 30.3822C27.1773 30.5197 27.3887 30.6279 27.5985 30.7329C27.6822 30.7749 27.8129 30.8213 27.8738 30.7158C27.917 30.6416 27.9154 30.5225 27.8921 30.435C27.6193 29.4325 27.2379 28.4666 26.8348 27.5101C26.5155 26.752 26.1407 26.0166 25.8308 25.255C25.521 24.4947 25.2103 23.7331 25.006 22.9332C24.8766 22.4262 24.646 21.9531 24.4286 21.4746C24.089 20.7265 23.5557 20.1173 23.0331 19.4983C22.3149 18.6476 21.5128 17.8756 20.6893 17.1251C20.0206 16.5158 19.3282 15.9323 18.6564 15.3266C18.4207 15.1142 18.2029 14.8798 17.9969 14.6396C17.2801 13.8036 16.468 13.079 15.5482 12.4595C14.7832 11.9436 14.06 11.369 13.3107 10.83C12.8 10.4627 12.2874 10.0956 11.7563 9.75917C11.1522 9.37704 10.5696 8.96728 9.99165 8.549C9.58471 8.25419 9.14359 8.00507 8.72936 7.7204C8.19025 7.3497 7.66505 6.95881 7.12847 6.58585C6.92929 6.44749 6.7063 6.34102 6.50458 6.20492C6.2332 6.0221 5.96293 5.83648 5.71134 5.63023C5.58483 5.52683 5.47957 5.38638 5.40082 5.24277C5.30914 5.07139 5.43898 4.91762 5.63408 4.96132C5.78081 4.99472 5.92954 5.0421 6.06189 5.11259C6.6253 5.41291 7.17143 5.74857 7.7459 6.02764C9.17985 6.72349 10.552 7.52222 11.8989 8.36647C12.6318 8.82548 13.393 9.24139 14.1319 9.69174C14.8708 10.1414 15.6154 10.5858 16.3247 11.0781C16.7634 11.382 17.1457 11.7655 17.5454 12.1223C18.1647 12.6742 18.7399 13.268 19.2937 13.8834C19.5001 14.1128 19.7256 14.3262 19.9491 14.5405C20.3115 14.888 20.6808 15.2281 21.0444 15.5742C21.6134 16.1167 22.2021 16.6418 22.7432 17.2099C23.78 18.2997 24.8418 19.3716 25.7213 20.5934C25.9876 20.9635 26.2026 21.3727 26.4099 21.78C26.8261 22.5977 27.1066 23.4626 27.3523 24.3456C27.592 25.2075 27.9049 26.0512 28.2167 26.8915C28.4937 27.6387 28.8138 28.3698 29.1127 29.1089C29.2319 29.4044 29.4425 29.6058 29.7417 29.7192C29.954 29.7997 30.001 29.7812 30.1013 29.583C30.1765 29.4337 30.2389 29.2781 30.3237 29.1347C30.5068 28.8242 30.7882 28.6818 31.1509 28.7179C31.3353 28.7363 31.5187 28.7723 31.7003 28.8112C31.8805 28.8496 32.0211 28.8026 32.1106 28.6446C32.1837 28.515 32.2584 28.3819 32.3036 28.2415C32.4888 27.6605 32.5592 27.0566 32.6681 26.4606C32.8265 25.5942 33.0107 24.7322 33.1796 23.8676C33.3105 23.1987 33.4602 22.5327 33.555 21.8591C33.6414 21.2436 33.6653 20.6205 33.7136 20.0004C33.719 19.9281 33.709 19.8553 33.7061 19.798C33.7061 19.7964 33.7052 19.7951 33.7039 19.7944V19.7944ZM35.5102 20.3373C35.5091 20.337 35.5079 20.3378 35.5077 20.3389C35.491 20.4208 35.4778 20.4682 35.4721 20.5168C35.3828 21.2991 35.2661 22.0752 35.0639 22.8412C34.8947 23.4827 34.7804 24.1379 34.6421 24.7873C34.6303 24.8443 34.6283 24.9032 34.6157 24.9597C34.5437 25.2833 34.5009 25.6169 34.392 25.9278C34.0952 26.7762 34.0084 27.6587 33.8959 28.5382C33.8546 28.8589 34.0621 29.0208 34.3764 28.9212C34.5525 28.8655 34.736 28.8072 34.8889 28.7092C35.2986 28.4476 35.7294 28.2069 36.0081 27.7877C36.0629 27.705 36.1395 27.6358 36.212 27.5663C36.802 26.9938 37.4056 26.4349 38.0499 25.922C38.4201 25.6277 38.5669 25.2599 38.5241 24.8035C38.4721 24.2502 38.4209 23.6982 38.3037 23.1523C38.1759 22.5596 38.0107 21.9792 37.7854 21.4166C37.6716 21.1333 37.4696 20.9211 37.1736 20.8275C36.6291 20.6555 36.0776 20.5037 35.5102 20.3373V20.3373ZM42.0888 33.956C42.3453 34.0152 42.5875 33.8157 42.5942 33.5525V33.5525C42.6002 33.3382 42.5895 33.1215 42.6211 32.9102C42.6418 32.7714 42.6065 32.6736 42.4991 32.6129C42.3322 32.5187 42.1598 32.4243 41.9774 32.3687C41.635 32.264 41.3165 32.1206 41.0211 31.9232C40.8612 31.8162 40.6846 31.7789 40.4919 31.8415C40.1933 31.939 39.8819 31.9662 39.5721 32.0115C39.3085 32.0497 39.0521 32.1439 38.7967 32.2259V32.2259C38.6499 32.2732 38.5606 32.488 38.6919 32.5689C38.725 32.5893 38.7644 32.6036 38.808 32.6165C39.2664 32.7501 39.6955 32.9369 40.0165 33.3045C40.0651 33.3606 40.1285 33.4073 40.192 33.4471C40.2541 33.4858 40.322 33.5212 40.3924 33.5389C40.9398 33.6769 41.4884 33.8114 42.0374 33.9439C42.0545 33.948 42.0716 33.9521 42.0888 33.956Z" stroke="black" stroke-width="4" stroke-linejoin="round" mask="url(#path-2-outside-2_5056_2360)"/>
</g>
<defs>
<filter id="filter0_f_5056_2360" x="-0.628174" y="-1.04465" width="58.1658" height="70.2205" filterUnits="userSpaceOnUse" color-interpolation-filters="sRGB">
<feFlood flood-opacity="0" result="BackgroundImageFix"/>
<feBlend mode="normal" in="SourceGraphic" in2="BackgroundImageFix" result="shape"/>
<feGaussianBlur stdDeviation="2" result="effect1_foregroundBlur_5056_2360"/>
</filter>
<clipPath id="clip0_5056_2360">
<rect width="68" height="68" fill="white"/>
</clipPath>
</defs>
</svg>
